<?xml version="1.0" encoding="UTF-8"?>
<!DOCTYPE svg PUBLIC "-//W3C//DTD SVG 1.1//EN" "http://www.w3.org/Graphics/SVG/1.1/DTD/svg11.dtd">
<!-- Creator: CorelDRAW X8 -->
<svg xmlns="http://www.w3.org/2000/svg" xml:space="preserve" width="420px" height="80px" version="1.1" style="shape-rendering:geometricPrecision; text-rendering:geometricPrecision; image-rendering:optimizeQuality; fill-rule:evenodd; clip-rule:evenodd"
viewBox="0 0 4200 800"
 xmlns:xlink="http://www.w3.org/1999/xlink">
 <defs>
  <style type="text/css">
   <![CDATA[
    .fil0 {fill:#002649}
   ]]>
  </style>
 </defs>
 <g id="Слой_x0020_1">
  <metadata id="CorelCorpID_0Corel-Layer"/>
  <g>
   <path class="fil0" d="M14 25l0 0 0 -10 0 0 10 0 9 0 6 0 0 10 -5 0 -1 0 -19 0zm69 -10l6 0 0 10 -6 0 0 0 -20 0 0 0 -5 0 0 -10 5 0 0 0 20 0zm50 0l6 0 0 10 -6 0 0 0 -20 0 0 0 -5 0 0 -10 5 0 0 0 20 0zm50 0l6 0 0 10 -6 0 0 0 -20 0 0 0 -5 0 0 -10 5 0 0 0 20 0zm50 0l6 0 0 10 -6 0 0 0 -20 0 0 0 -5 0 0 -10 5 0 0 0 20 0zm50 0l6 0 0 10 -6 0 0 0 -20 0 0 0 -5 0 0 -10 5 0 0 0 20 0zm50 0l5 0 0 10 -5 0 0 0 -20 0 0 0 -5 0 0 -10 5 0 0 0 20 0zm50 0l5 0 0 10 -5 0 0 0 -20 0 0 0 -5 0 0 -10 5 0 0 0 20 0zm50 0l5 0 0 10 -5 0 0 0 -20 0 0 0 -5 0 0 -10 5 0 0 0 20 0zm50 0l5 0 0 10 -5 0 0 0 -20 0 0 0 -5 0 0 -10 5 0 0 0 20 0zm50 0l5 0 0 10 -5 0 0 0 -20 0 0 0 -5 0 0 -10 5 0 0 0 20 0zm50 0l5 0 0 10 -5 0 0 0 -20 0 0 0 -5 0 0 -10 5 0 0 0 20 0zm50 0l5 0 0 10 -5 0 0 0 -20 0 0 0 -5 0 0 -10 5 0 0 0 20 0zm50 0l5 0 0 10 -5 0 0 0 -20 0 0 0 -5 0 0 -10 5 0 0 0 20 0zm50 0l5 0 0 10 -5 0 0 0 -20 0 0 0 -5 0 0 -10 5 0 0 0 20 0zm50 0l5 0 0 10 -5 0 0 0 -20 0 0 0 -5 0 0 -10 5 0 0 0 20 0zm50 0l5 0 0 10 -5 0 0 0 -20 0 0 0 -5 0 0 -10 5 0 0 0 20 0zm50 0l5 0 0 10 -5 0 0 0 -20 0 0 0 -5 0 0 -10 5 0 0 0 20 0zm50 0l5 0 0 10 -5 0 0 0 -20 0 0 0 -5 0 0 -10 5 0 0 0 20 0zm50 0l5 0 0 10 -5 0 0 0 -20 0 0 0 -5 0 0 -10 5 0 0 0 20 0zm50 0l5 0 0 10 -5 0 0 0 -20 0 0 0 -5 0 0 -10 5 0 0 0 20 0zm50 0l5 0 0 10 -5 0 0 0 -20 0 0 0 -6 0 0 -10 6 0 0 0 20 0zm50 0l5 0 0 10 -5 0 0 0 -20 0 0 0 -6 0 0 -10 6 0 0 0 20 0zm50 0l5 0 0 10 -5 0 0 0 -20 0 0 0 -6 0 0 -10 6 0 0 0 20 0zm50 0l5 0 0 10 -5 0 0 0 -20 0 0 0 -6 0 0 -10 6 0 0 0 20 0zm50 0l5 0 0 10 -5 0 0 0 -20 0 0 0 -6 0 0 -10 6 0 0 0 20 0zm49 0l6 0 0 10 -6 0 0 0 -19 0 0 0 -6 0 0 -10 6 0 0 0 19 0zm50 0l6 0 0 10 -6 0 0 0 -20 0 0 0 -5 0 0 -10 5 0 0 0 20 0zm50 0l6 0 0 10 -6 0 0 0 -20 0 0 0 -5 0 0 -10 5 0 0 0 20 0zm50 0l6 0 0 10 -6 0 0 0 -20 0 0 0 -5 0 0 -10 5 0 0 0 20 0zm50 0l6 0 0 10 -6 0 0 0 -20 0 0 0 -5 0 0 -10 5 0 0 0 20 0zm50 0l5 0 0 10 -5 0 0 0 -20 0 0 0 -5 0 0 -10 5 0 0 0 20 0zm50 0l5 0 0 10 -5 0 0 0 -20 0 0 0 -5 0 0 -10 5 0 0 0 20 0zm50 0l5 0 0 10 -5 0 0 0 -20 0 0 0 -5 0 0 -10 5 0 0 0 20 0zm50 0l5 0 0 10 -5 0 0 0 -20 0 0 0 -5 0 0 -10 5 0 0 0 20 0zm50 0l5 0 0 10 -5 0 0 0 -20 0 0 0 -5 0 0 -10 5 0 0 0 20 0zm50 0l5 0 0 10 -5 0 0 0 -20 0 0 0 -5 0 0 -10 5 0 0 0 20 0zm50 0l5 0 0 10 -5 0 0 0 -20 0 0 0 -5 0 0 -10 5 0 0 0 20 0zm50 0l5 0 0 10 -5 0 0 0 -20 0 0 0 -5 0 0 -10 5 0 0 0 20 0zm50 0l5 0 0 10 -5 0 0 0 -20 0 0 0 -5 0 0 -10 5 0 0 0 20 0zm50 0l5 0 0 10 -5 0 0 0 -20 0 0 0 -5 0 0 -10 5 0 0 0 20 0zm50 0l5 0 0 10 -5 0 0 0 -20 0 0 0 -5 0 0 -10 5 0 0 0 20 0zm50 0l5 0 0 10 -5 0 0 0 -20 0 0 0 -5 0 0 -10 5 0 0 0 20 0zm50 0l5 0 0 10 -5 0 0 0 -20 0 0 0 -5 0 0 -10 5 0 0 0 20 0zm50 0l5 0 0 10 -5 0 0 0 -20 0 0 0 -5 0 0 -10 5 0 0 0 20 0zm50 0l5 0 0 10 -5 0 0 0 -20 0 0 0 -5 0 0 -10 5 0 0 0 20 0zm50 0l5 0 0 10 -5 0 0 0 -20 0 0 0 -5 0 0 -10 5 0 0 0 20 0zm50 0l5 0 0 10 -5 0 0 0 -20 0 0 0 -6 0 0 -10 6 0 0 0 20 0zm50 0l5 0 0 10 -5 0 0 0 -20 0 0 0 -6 0 0 -10 6 0 0 0 20 0zm50 0l5 0 0 10 -5 0 0 0 -20 0 0 0 -6 0 0 -10 6 0 0 0 20 0zm50 0l5 0 0 10 -5 0 0 0 -20 0 0 0 -6 0 0 -10 6 0 0 0 20 0zm49 0l6 0 0 10 -5 0 -1 0 -19 0 0 0 -6 0 0 -10 6 0 0 0 19 0zm50 0l6 0 0 10 -6 0 0 0 -20 0 0 0 -5 0 0 -10 5 0 0 0 20 0zm50 0l6 0 0 10 -6 0 0 0 -20 0 0 0 -5 0 0 -10 5 0 0 0 20 0zm50 0l6 0 0 10 -6 0 0 0 -20 0 0 0 -5 0 0 -10 5 0 0 0 20 0zm50 0l6 0 0 10 -6 0 0 0 -20 0 0 0 -5 0 0 -10 5 0 0 0 20 0zm50 0l6 0 0 10 -6 0 0 0 -20 0 0 0 -5 0 0 -10 5 0 0 0 20 0zm50 0l5 0 0 10 -5 0 0 0 -20 0 0 0 -5 0 0 -10 5 0 0 0 20 0zm50 0l5 0 0 10 -5 0 0 0 -20 0 0 0 -5 0 0 -10 5 0 0 0 20 0zm50 0l5 0 0 10 -5 0 0 0 -20 0 0 0 -5 0 0 -10 5 0 0 0 20 0zm50 0l5 0 0 10 -5 0 0 0 -20 0 0 0 -5 0 0 -10 5 0 0 0 20 0zm50 0l5 0 0 10 -5 0 0 0 -20 0 0 0 -5 0 0 -10 5 0 0 0 20 0zm50 0l5 0 0 10 -5 0 0 0 -20 0 0 0 -5 0 0 -10 5 0 0 0 20 0zm50 0l5 0 0 10 -5 0 0 0 -20 0 0 0 -5 0 0 -10 5 0 0 0 20 0zm50 0l5 0 0 10 -5 0 0 0 -20 0 0 0 -5 0 0 -10 5 0 0 0 20 0zm50 0l5 0 0 10 -5 0 0 0 -20 0 0 0 -5 0 0 -10 5 0 0 0 20 0zm50 0l5 0 0 10 -5 0 0 0 -20 0 0 0 -5 0 0 -10 5 0 0 0 20 0zm50 0l5 0 0 10 -5 0 0 0 -20 0 0 0 -5 0 0 -10 5 0 0 0 20 0zm50 0l5 0 0 10 -5 0 0 0 -20 0 0 0 -5 0 0 -10 5 0 0 0 20 0zm50 0l5 0 0 10 -5 0 0 0 -20 0 0 0 -5 0 0 -10 5 0 0 0 20 0zm50 0l5 0 0 10 -5 0 0 0 -20 0 0 0 -5 0 0 -10 5 0 0 0 20 0zm50 0l5 0 0 10 -5 0 0 0 -20 0 0 0 -5 0 0 -10 5 0 0 0 20 0zm50 0l5 0 0 10 -5 0 0 0 -20 0 0 0 -6 0 0 -10 6 0 0 0 20 0zm50 0l5 0 0 10 -5 0 0 0 -20 0 0 0 -6 0 0 -10 6 0 0 0 20 0zm50 0l5 0 0 10 -5 0 0 0 -20 0 0 0 -6 0 0 -10 6 0 0 0 20 0zm50 0l5 0 0 10 -5 0 0 0 -20 0 0 0 -6 0 0 -10 6 0 0 0 20 0zm50 0l5 0 0 10 -5 0 0 0 -20 0 0 0 -6 0 0 -10 6 0 0 0 20 0zm49 0l6 0 0 10 -6 0 0 0 -19 0 0 0 -6 0 0 -10 6 0 0 0 19 0zm36 29l3 4 -8 7 -3 -4 -13 -16 -3 -4 9 -7 3 4 0 0 12 16zm30 40l3 4 -8 7 -3 -5 -12 -15 -3 -5 8 -6 3 4 0 0m224 294l3 5 -8 6 -3 -4 -13 -16 -3 -4 9 -7 3 5 0 0 12 15 0 0zm28 38l-4 6 0 0 -4 0 -4 -6 -1 0 0 0 -5 -7 -3 -5 8 -6 3 4 0 0 10 14zm-19 26l-16 20 -8 -6 3 -4 12 -16 3 -4 9 6 -3 4 0 0zm-31 40l-15 20 -8 -6 3 -5 12 -15 3 -5 9 7 -4 4 0 0zm-30 40l-15 20 -8 -7 3 -4 12 -16 3 -4 8 6 -3 5 0 0zm-42 55l-3 4 -9 -6 3 -4 9 -11 4 -5 3 -4 8 6 -3 4 0 0 -4 6 -8 10zm-30 40l-4 4 -8 -6 3 -4 12 -16 3 -4 9 6 -3 4 0 0 -12 16zm-19 24l-15 20 -8 -6 3 -5 12 -15 3 -5 9 7 -4 4 0 0zm-30 40l-15 20 -8 -7 3 -4 12 -16 3 -4 8 6 -3 5 0 0zm-30 39l-15 20 -9 -6 4 -4 12 -16 3 -4 8 6 -3 4 0 0zm-30 40l-16 20 -8 -6 3 -4 12 -16 4 -4 8 6 -3 4 0 0zm-31 41l-6 0 -13 0 -5 0 0 -10 5 0 0 0 13 0 1 -2 2 2 3 0 0 2 4 3 -4 4 0 0 0 1zm-69 0l-5 0 0 -10 5 0 0 0 20 0 0 0 5 0 0 10 -5 0 0 0 -20 0zm-50 0l-5 0 0 -10 5 0 0 0 20 0 0 0 5 0 0 10 -5 0 0 0 -20 0zm-50 0l-5 0 0 -10 5 0 0 0 20 0 0 0 5 0 0 10 -5 0 0 0 -20 0zm-50 0l-5 0 0 -10 5 0 0 0 20 0 0 0 5 0 0 10 -5 0 0 0 -20 0zm-50 0l-5 0 0 -10 5 0 0 0 20 0 0 0 5 0 0 10 -5 0 0 0 -20 0zm-50 0l-5 0 0 -10 5 0 0 0 20 0 0 0 5 0 0 10 -5 0 0 0 -20 0zm-50 0l-5 0 0 -10 5 0 0 0 20 0 0 0 5 0 0 10 -5 0 0 0 -20 0zm-50 0l-5 0 0 -10 5 0 0 0 20 0 0 0 5 0 0 10 -5 0 0 0 -20 0zm-50 0l-5 0 0 -10 5 0 0 0 20 0 0 0 5 0 0 10 -5 0 0 0 -20 0zm-50 0l-5 0 0 -10 5 0 0 0 20 0 0 0 6 0 0 10 -6 0 0 0 -20 0zm-50 0l-5 0 0 -10 5 0 0 0 20 0 0 0 6 0 0 10 -6 0 0 0 -20 0zm-50 0l-5 0 0 -10 5 0 0 0 20 0 0 0 6 0 0 10 -6 0 0 0 -20 0zm-50 0l-5 0 0 -10 5 0 0 0 20 0 0 0 6 0 0 10 -6 0 0 0 -20 0zm-50 0l-5 0 0 -10 5 0 0 0 20 0 0 0 6 0 0 10 -6 0 0 0 -20 0zm-49 0l-6 0 0 -10 6 0 0 0 19 0 0 0 6 0 0 10 -6 0 0 0 -19 0zm-50 0l-6 0 0 -10 6 0 0 0 20 0 0 0 5 0 0 10 -5 0 0 0 -20 0zm-50 0l-6 0 0 -10 6 0 0 0 20 0 0 0 5 0 0 10 -5 0 0 0 -20 0zm-50 0l-6 0 0 -10 6 0 0 0 20 0 0 0 5 0 0 10 -5 0 0 0 -20 0zm-50 0l-6 0 0 -10 6 0 0 0 20 0 0 0 5 0 0 10 -5 0 0 0 -20 0zm-50 0l-6 0 0 -10 6 0 0 0 20 0 0 0 5 0 0 10 -5 0 0 0 -20 0zm-50 0l-5 0 0 -10 5 0 0 0 20 0 0 0 5 0 0 10 -5 0 0 0 -20 0zm-50 0l-5 0 0 -10 5 0 0 0 20 0 0 0 5 0 0 10 -5 0 0 0 -20 0zm-50 0l-5 0 0 -10 5 0 0 0 20 0 0 0 5 0 0 10 -5 0 0 0 -20 0zm-50 0l-5 0 0 -10 5 0 0 0 20 0 0 0 5 0 0 10 -5 0 0 0 -20 0zm-50 0l-5 0 0 -10 5 0 0 0 20 0 0 0 5 0 0 10 -5 0 0 0 -20 0zm-50 0l-5 0 0 -10 5 0 0 0 20 0 0 0 5 0 0 10 -5 0 0 0 -20 0zm-50 0l-5 0 0 -10 5 0 0 0 20 0 0 0 5 0 0 10 -5 0 0 0 -20 0zm-50 0l-5 0 0 -10 5 0 0 0 20 0 0 0 5 0 0 10 -5 0 0 0 -20 0zm-50 0l-5 0 0 -10 5 0 0 0 20 0 0 0 5 0 0 10 -5 0 0 0 -20 0zm-50 0l-5 0 0 -10 5 0 0 0 20 0 0 0 5 0 0 10 -5 0 0 0 -20 0zm-50 0l-5 0 0 -10 5 0 0 0 20 0 0 0 5 0 0 10 -5 0 0 0 -20 0zm-50 0l-5 0 0 -10 5 0 0 0 20 0 0 0 5 0 0 10 -5 0 0 0 -20 0zm-50 0l-5 0 0 -10 5 0 0 0 20 0 0 0 5 0 0 10 -5 0 0 0 -20 0zm-50 0l-5 0 0 -10 5 0 0 0 20 0 0 0 5 0 0 10 -5 0 0 0 -20 0zm-50 0l-5 0 0 -10 5 0 0 0 20 0 0 0 5 0 0 10 -5 0 0 0 -20 0zm-50 0l-5 0 0 -10 5 0 0 0 20 0 0 0 6 0 0 10 -6 0 0 0 -20 0zm-50 0l-5 0 0 -10 5 0 0 0 20 0 0 0 6 0 0 10 -6 0 0 0 -20 0zm-50 0l-5 0 0 -10 5 0 0 0 20 0 0 0 6 0 0 10 -6 0 0 0 -20 0zm-50 0l-5 0 0 -10 5 0 0 0 20 0 0 0 6 0 0 10 -6 0 0 0 -20 0zm-50 0l-5 0 0 -10 5 0 0 0 20 0 0 0 6 0 0 10 -6 0 0 0 -20 0zm-49 0l-6 0 0 -10 6 0 0 0 19 0 1 0 5 0 0 10 -5 0 0 0 -20 0zm-50 0l-6 0 0 -10 6 0 0 0 20 0 0 0 5 0 0 10 -5 0 0 0 -20 0zm-50 0l-6 0 0 -10 6 0 0 0 20 0 0 0 5 0 0 10 -5 0 0 0 -20 0zm-50 0l-6 0 0 -10 6 0 0 0 20 0 0 0 5 0 0 10 -5 0 0 0 -20 0zm-50 0l-6 0 0 -10 6 0 0 0 20 0 0 0 5 0 0 10 -5 0 0 0 -20 0zm-50 0l-5 0 0 -10 5 0 0 0 20 0 0 0 5 0 0 10 -5 0 0 0 -20 0zm-50 0l-5 0 0 -10 5 0 0 0 20 0 0 0 5 0 0 10 -5 0 0 0 -20 0zm-50 0l-5 0 0 -10 5 0 0 0 20 0 0 0 5 0 0 10 -5 0 0 0 -20 0zm-50 0l-5 0 0 -10 5 0 0 0 20 0 0 0 5 0 0 10 -5 0 0 0 -20 0zm-50 0l-5 0 0 -10 5 0 0 0 20 0 0 0 5 0 0 10 -5 0 0 0 -20 0zm-50 0l-5 0 0 -10 5 0 0 0 20 0 0 0 5 0 0 10 -5 0 0 0 -20 0zm-50 0l-5 0 0 -10 5 0 0 0 20 0 0 0 5 0 0 10 -5 0 0 0 -20 0zm-50 0l-5 0 0 -10 5 0 0 0 20 0 0 0 5 0 0 10 -5 0 0 0 -20 0zm-50 0l-5 0 0 -10 5 0 0 0 20 0 0 0 5 0 0 10 -5 0 0 0 -20 0zm-50 0l-5 0 0 -10 5 0 0 0 20 0 0 0 5 0 0 10 -5 0 0 0 -20 0zm-50 0l-5 0 0 -10 5 0 0 0 20 0 0 0 5 0 0 10 -5 0 0 0 -20 0zm-50 0l-5 0 0 -10 5 0 0 0 20 0 0 0 5 0 0 10 -5 0 0 0 -20 0zm-50 0l-5 0 0 -10 5 0 0 0 20 0 0 0 5 0 0 10 -5 0 0 0 -20 0zm-50 0l-5 0 0 -10 5 0 0 0 20 0 0 0 5 0 0 10 -5 0 0 0 -20 0zm-50 0l-5 0 0 -10 5 0 0 0 20 0 0 0 5 0 0 10 -5 0 0 0 -20 0zm-50 0l-5 0 0 -10 5 0 0 0 20 0 0 0 6 0 0 10 -6 0 0 0 -20 0zm-50 0l-5 0 0 -10 5 0 0 0 20 0 0 0 6 0 0 10 -6 0 0 0 -20 0zm-50 0l-5 0 0 -10 5 0 0 0 20 0 0 0 6 0 0 10 -6 0 0 0 -20 0zm-50 0l-5 0 0 -10 5 0 0 0 20 0 0 0 6 0 0 10 -6 0 0 0 -20 0zm-50 0l-5 0 0 -10 5 0 0 0 20 0 0 0 6 0 0 10 -6 0 0 0 -20 0zm-49 0l-6 0 0 -10 6 0 0 0 19 0 0 0 6 0 0 10 -6 0 0 0 -19 0zm-50 0l-6 0 0 -10 6 0 0 0 20 0 0 0 5 0 0 10 -5 0 0 0 -20 0zm-50 0l-6 0 0 -10 6 0 0 0 20 0 0 0 5 0 0 10 -5 0 0 0 -20 0zm-50 0l-6 0 0 -10 6 0 0 0 20 0 0 0 5 0 0 10 -5 0 0 0 -20 0zm-50 0l-6 0 0 -10 6 0 0 0 20 0 0 0 5 0 0 10 -5 0 0 0 -20 0zm-50 0l-6 0 0 -10 6 0 0 0 20 0 0 0 5 0 0 10 -5 0 0 0 -20 0zm-50 0l-5 0 0 -10 5 0 0 0 20 0 0 0 5 0 0 10 -5 0 0 0 -20 0zm-50 0l-5 0 0 -10 5 0 0 0 20 0 0 0 5 0 0 10 -5 0 0 0 -20 0zm-50 0l-5 0 0 -10 5 0 0 0 20 0 0 0 5 0 0 10 -5 0 0 0 -20 0zm-50 0l-5 0 0 -10 5 0 0 0 20 0 0 0 5 0 0 10 -5 0 0 0 -20 0zm-50 0l-5 0 0 -10 5 0 0 0 20 0 0 0 5 0 0 10 -5 0 0 0 -20 0zm-50 0l-5 0 0 -10 -9 0 0 -6 0 0 0 -20 0 -5 10 0 0 5 0 0 0 20 0 0 0 6 4 0 0 0 20 0 0 0 5 0 0 10 -5 0 0 0 -20 0zm-14 -86l0 -5 10 0 0 5 0 0 0 20 0 0 0 6 -10 0 0 -6 0 0 0 -20zm0 -49l0 -6 10 0 0 6 0 0 0 19 0 1 0 5 -10 0 0 -5 0 0 0 -20zm0 -50l0 -6 10 0 0 6 0 0 0 20 0 0 0 5 -10 0 0 -5 0 0 0 -20zm0 -50l0 -6 10 0 0 6 0 0 0 20 0 0 0 5 -10 0 0 -5 0 0 0 -20zm0 -50l0 -6 10 0 0 6 0 0 0 20 0 0 0 5 -10 0 0 -5 0 0 0 -20zm0 -50l0 -6 10 0 0 6 0 0 0 20 0 0 0 5 -10 0 0 -5 0 0 0 -20zm0 -50l0 -5 10 0 0 5 0 0 0 20 0 0 0 5 -10 0 0 -5 0 0 0 -20zm0 -50l0 -5 10 0 0 5 0 0 0 20 0 0 0 5 -10 0 0 -5 0 0 0 -20zm0 -50l0 -5 10 0 0 5 0 0 0 20 0 0 0 5 -10 0 0 -5 0 0 0 -20zm0 -50l0 -5 10 0 0 5 0 0 0 20 0 0 0 5 -10 0 0 -5 0 0 0 -20zm0 -50l0 -5 10 0 0 5 0 0 0 20 0 0 0 5 -10 0 0 -5 0 0 0 -20zm0 -50l0 -5 10 0 0 5 0 0 0 20 0 0 0 5 -10 0 0 -5 0 0 0 -20zm0 -50l0 -5 10 0 0 5 0 0 0 20 0 0 0 5 -10 0 0 -5 0 0 0 -20zm0 -50l0 -5 10 0 0 5 0 0 0 20 0 0 0 5 -10 0 0 -5 0 0 0 -20zm3942 64l-3 -4 8 -6 3 4 0 0 12 16 0 0 4 4 -9 6 -3 -4 -12 -16zm30 40l-3 -4 8 -6 3 4 1 0 12 16 0 0 3 4 -9 6 -3 -4 -12 -16zm30 40l-3 -4 9 -7 3 4 0 0 12 16 0 0 3 4 -8 7 -3 -4 -13 -16zm31 40l-3 -5 8 -6 3 4 0 0 12 16 0 0 3 4 -8 7 -3 -5 -12 -15zm30 39l-3 -4 8 -6 3 4 0 0 12 16 0 0 2 2 2 2 -9 6 -3 -4 -12 -16zm30 40l-3 -4 8 -6 3 4 1 0 12 16 0 0 3 4 -9 6 -3 -4 -12 -16z"/>
  </g>
 </g>
</svg>
