<?xml version="1.0" encoding="UTF-8"?>
<!DOCTYPE svg PUBLIC "-//W3C//DTD SVG 1.1//EN" "http://www.w3.org/Graphics/SVG/1.1/DTD/svg11.dtd">
<!-- Creator: CorelDRAW X8 -->
<svg xmlns="http://www.w3.org/2000/svg" xml:space="preserve" width="1000px" height="1000px" version="1.1" style="shape-rendering:geometricPrecision; text-rendering:geometricPrecision; image-rendering:optimizeQuality; fill-rule:evenodd; clip-rule:evenodd"
viewBox="0 0 10000 10000"
 xmlns:xlink="http://www.w3.org/1999/xlink"
 enable-background="new 0 0 511 511">
 <defs>
  <style type="text/css">
   <![CDATA[
    .str2 {stroke:#00264A;stroke-width:19.9961}
    .str1 {stroke:white;stroke-width:29.9882}
    .str0 {stroke:white;stroke-width:29.9882;stroke-dasharray:59.976425 89.964638}
    .fil1 {fill:none}
    .fil29 {fill:#FEFEFE}
    .fil6 {fill:#002649}
    .fil8 {fill:#002649}
    .fil4 {fill:#00264A}
    .fil26 {fill:#116FFF}
    .fil14 {fill:#2081DA}
    .fil10 {fill:#57AEFF}
    .fil17 {fill:#5C9EFF}
    .fil27 {fill:#656D78}
    .fil23 {fill:#7BBFFF}
    .fil13 {fill:#8CC7FF}
    .fil32 {fill:#8CC7FF}
    .fil15 {fill:#94C1FF}
    .fil21 {fill:#BFE0FF}
    .fil20 {fill:#C0D100}
    .fil12 {fill:#C0D100}
    .fil16 {fill:#D7E9FF}
    .fil24 {fill:#DEEFFF}
    .fil25 {fill:#DEEFFF}
    .fil18 {fill:#EAFF00}
    .fil2 {fill:#EAFF00}
    .fil19 {fill:#FAFFC2}
    .fil11 {fill:#FAFFC2}
    .fil0 {fill:#FFC000}
    .fil9 {fill:white}
    .fil22 {fill:white}
    .fil3 {fill:white}
    .fil7 {fill:#002649;fill-rule:nonzero}
    .fil5 {fill:#00264A;fill-rule:nonzero}
    .fil28 {fill:white;fill-opacity:0.200000}
    .fil31 {fill:white;fill-opacity:0.250980}
    .fil30 {fill:white;fill-opacity:0.301961}
   ]]>
  </style>
 </defs>
 <g id="Слой_x0020_1">
  <metadata id="CorelCorpID_0Corel-Layer"/>
 </g>
 <g id="__x0023_Layer_x0020_1">
  <metadata id="CorelCorpID_1Corel-Layer"/>
  <g id="_2111750259456">
   <circle class="fil0" cx="4972" cy="353" r="205"/>
   <g>
    <path class="fil1 str0" d="M100 4274c0,0 135,-1317 2223,-1400"/>
    <polyline class="fil1 str1" points="2295,2789 2407,2879 2295,2967 "/>
   </g>
   <g>
    <g>
     <polygon class="fil2" points="375,100 841,202 649,533 375,533 100,533 237,316 "/>
     <circle class="fil3" cx="362" cy="343" r="224"/>
     <path class="fil4" d="M262 520c49,28 109,35 166,15 0,-1 1,-1 1,-1 0,0 0,0 0,0 0,0 0,0 0,0 57,-21 99,-66 118,-119 2,-5 3,-10 5,-15 10,-38 9,-80 -5,-119 -15,-40 -41,-73 -74,-95 -4,-3 -8,-6 -13,-8 -49,-29 -110,-36 -167,-15 0,0 0,0 0,0 0,0 0,0 0,0 -1,0 -1,1 -1,1 -57,21 -98,66 -117,118 -2,5 -3,10 -5,15 -10,39 -9,80 6,120 14,40 41,72 73,94 4,3 9,6 13,9zm211 -29c12,-23 17,-52 16,-85 15,0 30,1 42,4 -11,32 -31,60 -58,81zm63 -96c-14,-3 -31,-5 -48,-5 -2,-22 -6,-45 -13,-68l61 -22c9,32 8,65 0,95zm-5 -110l-62 22c-10,-27 -23,-51 -38,-72 13,-11 24,-23 33,-35 30,20 53,49 67,85zm-80 -94c-8,11 -18,21 -29,31 -21,-25 -44,-44 -67,-55 34,-1 67,8 96,24zm-145 -15c33,-6 71,16 103,56 -19,15 -42,28 -68,38l-35 -94zm40 109c28,-11 52,-25 73,-40 14,19 26,42 35,68l-86 31 -22 -59zm28 75l85 -32c7,21 11,42 13,62 -25,2 -53,7 -81,17l-17 -47 0 0zm23 62c26,-9 52,-14 76,-16 2,52 -13,93 -42,109l-34 -93zm-126 84c8,-10 18,-21 29,-30 20,25 43,44 66,54 -33,1 -66,-8 -95,-24zm145 15c-33,7 -72,-15 -104,-55 20,-15 43,-28 69,-39l35 94zm-40 -109c-28,11 -53,25 -73,41 -12,-16 -22,-35 -31,-56l87 -32 17 47 0 0zm-23 -62l-87 32c-9,-26 -15,-51 -17,-75 26,-1 54,-7 82,-16l22 59zm-62 -168l35 93c-27,10 -53,15 -78,16 -2,-51 14,-93 43,-109zm-43 25c-11,23 -17,52 -16,85 -15,0 -29,-2 -41,-5 11,-31 30,-59 57,-80zm-62 95c14,3 30,5 47,5 2,26 8,53 18,80l-61 23c-12,-36 -13,-74 -4,-108zm71 101c9,22 21,42 33,60 -12,11 -23,23 -32,35 -26,-18 -48,-43 -61,-73l60 -22 0 0z"/>
     <path class="fil1 str2" d="M443 592c-132,47 -277,-23 -325,-155 -49,-132 16,-277 148,-327"/>
    </g>
    <path class="fil5" d="M640 354c0,49 27,81 69,81 29,0 60,-18 65,-63l-38 0c-3,17 -14,25 -27,25 -18,0 -30,-17 -30,-44 0,-26 12,-44 30,-44 13,0 22,7 26,23l38 0c-4,-42 -36,-61 -64,-61 -42,0 -69,33 -69,83z"/>
    <polygon id="1" class="fil5" points="908,433 908,274 793,274 793,433 833,433 833,310 869,310 869,433 "/>
    <path id="2" class="fil5" d="M974 331l0 -21 61 0 0 -36 -99 0 0 159 58 0c31,0 52,-21 52,-52 0,-30 -21,-50 -52,-50l-20 0zm0 66l0 -31 20 0c8,0 13,6 13,15 0,9 -5,16 -13,16l-20 0z"/>
    <path id="3" class="fil5" d="M1123 309c12,0 23,10 26,28l-41 0 0 34 41 0c-5,17 -16,27 -28,27 -14,0 -24,-9 -27,-26l-38 0c4,45 36,63 65,63 34,0 70,-27 70,-82 0,-54 -35,-81 -68,-81 -29,0 -61,18 -65,60l37 0c5,-16 14,-23 28,-23z"/>
    <polygon id="4" class="fil5" points="1212,434 1224,434 1291,354 1291,433 1331,433 1331,272 1319,272 1251,349 1251,274 1212,274 "/>
   </g>
   <g>
    <circle class="fil3" cx="3258" cy="1570" r="500"/>
    <circle class="fil3" cx="4587" cy="1570" r="500"/>
    <circle class="fil3" cx="5916" cy="1570" r="500"/>
    <circle class="fil3" cx="1823" cy="1570" r="500"/>
    <path class="fil0" d="M4662 1748c0,22 18,39 39,39 21,0 39,-17 39,-39 0,-21 -18,-38 -39,-38 -21,0 -39,17 -39,38z"/>
    <path class="fil0" d="M4701 1805c-6,0 -13,-2 -18,-3l0 43 13 -6c3,-1 6,-1 9,0l14 6 0 -43c-6,1 -12,3 -18,3z"/>
    <path class="fil0" d="M6178 1320l-24 24 43 0 52 -51 -48 0c-5,0 -9,-5 -9,-10l0 -47 -52 51 0 44 24 -24c4,-4 10,-4 14,0 3,3 3,9 0,13z"/>
    <circle class="fil3" cx="600" cy="1570" r="500"/>
    <circle class="fil0" cx="5921" cy="1563" r="67"/>
    <rect class="fil0" x="293" y="1289" width="130" height="130"/>
    <path class="fil0" d="M483 1289l235 0 0 130 -145 0c0,0 -10,-40 -40,-40 -21,0 -30,25 -33,40l-17 0 0 -130z"/>
    <rect class="fil0" x="778" y="1289" width="135" height="130"/>
    <path class="fil0" d="M1498 1504l530 -140 15 70 -168 45c-26,-1 -195,-5 -237,-5 -29,0 -33,45 -32,76l-88 24 -20 -70z"/>
    <path class="fil0" d="M2032 1555c-58,0 -58,89 0,89 59,0 59,-89 0,-89z"/>
    <path class="fil0" d="M3334 1448l20 71 10 -13c0,-2 3,-4 6,-4l1 0c3,0 4,1 6,3l31 31 13 -13 -30 -32c-2,-2 -3,-4 -3,-7 0,-3 1,-5 4,-6l13 -10 -71 -20z"/>
    <rect class="fil0" x="538" y="1839" width="214.996" height="64.9961"/>
    <path class="fil0" d="M3540 1645l-564 0 0 66c0,7 6,12 12,12l540 0c6,0 12,-5 12,-12l0 -66zm-252 38c0,16 -14,30 -30,30 -16,0 -30,-14 -30,-30 0,-16 14,-30 30,-30 16,0 30,14 30,30z"/>
    <g>
     <path class="fil6" d="M2132 1467l-67 0 -34 -132c-4,-17 -21,-27 -38,-23l-77 20c-5,1 -8,6 -7,12 2,5 7,8 12,7l77 -20c7,-2 13,2 15,8l3 15 -509 130 -4 -15c-1,-3 0,-6 1,-9 2,-2 4,-4 8,-5l350 -89c5,-2 8,-7 7,-12 -1,-5 -7,-8 -12,-7l-350 89c-17,4 -27,21 -23,38l72 282c4,14 16,23 30,23 3,0 5,0 8,-1l5 -1 0 12c0,17 14,31 31,31l502 0c17,0 31,-14 31,-31l0 -291c0,-17 -14,-31 -31,-31zm-533 290l-10 3c-6,1 -12,-3 -14,-9l-44 -172 68 -18 0 196zm0 -259l0 43 -73 19 -14 -57 93 -24c-4,5 -6,12 -6,19zm446 -31l-77 0 72 -18 5 18zm-24 -94l15 57 -147 37 -238 0 370 -94zm111 428l-502 0c-7,0 -12,-5 -12,-12l0 -24 0 -267c0,-6 5,-11 12,-11l502 0c7,0 12,5 12,11l0 291 0 0c0,7 -5,12 -12,12z"/>
     <path class="fil6" d="M1870 1706l-212 0c-5,0 -9,5 -9,10 0,5 4,10 9,10l212 0c6,0 10,-5 10,-10 0,-5 -4,-10 -10,-10z"/>
     <path class="fil6" d="M2032 1536c-14,0 -27,4 -37,12 -11,-8 -24,-12 -38,-12 -35,0 -64,28 -64,64 0,35 29,63 64,63 14,0 27,-4 38,-12 10,8 23,12 37,12 35,0 64,-28 64,-63 0,-36 -29,-64 -64,-64zm-64 67c0,0 0,0 0,0 0,1 0,2 0,3 0,0 0,0 0,0 2,12 6,22 13,31 -7,5 -15,7 -24,7 -24,0 -44,-20 -44,-44 0,-25 20,-45 44,-45 9,0 17,2 24,7 -7,9 -11,19 -13,31 0,0 0,0 0,0 0,1 0,2 0,3 0,0 0,0 0,0 0,1 0,2 0,3 0,2 0,3 0,4zm64 41c-12,0 -23,-5 -31,-13 0,0 0,0 -1,0 0,-1 0,-1 -1,-1 0,-1 0,-1 0,-1 0,0 -1,-1 -1,-1 0,0 0,0 0,0 -7,-8 -10,-18 -10,-29 0,-10 3,-20 10,-28 0,0 0,0 0,0 0,0 1,-1 1,-1 0,0 0,0 0,-1 1,0 1,0 1,-1 1,0 1,0 1,0 8,-8 19,-13 31,-13 25,0 45,20 45,45 0,24 -20,44 -45,44z"/>
     <path class="fil6" d="M1728 1542l-43 0c-20,0 -36,16 -36,36l0 43c0,20 16,36 36,36l43 0c20,0 36,-16 36,-36l0 -43c0,-20 -16,-36 -36,-36zm17 63l-21 0c-5,0 -10,4 -10,9 0,6 5,10 10,10l20 0c-1,8 -8,14 -16,14l-43 0c-8,0 -15,-6 -16,-14l20 0c5,0 10,-4 10,-10 0,-5 -5,-9 -10,-9l-21 0 0 -9 21 0c5,0 10,-4 10,-9 0,-6 -5,-10 -10,-10l-21 0c1,-9 8,-16 17,-16l43 0c9,0 16,7 17,16l-21 0c-5,0 -10,4 -10,10 0,5 5,9 10,9l21 0 0 9z"/>
     <path class="fil6" d="M2098 1749l-338 0c-5,0 -10,5 -10,10 0,5 5,10 10,10l338 0c6,0 10,-5 10,-10 0,-5 -4,-10 -10,-10z"/>
     <path class="fil6" d="M1698 1749l-40 0c-5,0 -9,5 -9,10 0,5 4,10 9,10l40 0c5,0 10,-5 10,-10 0,-5 -5,-10 -10,-10z"/>
    </g>
    <g>
     <path class="fil6" d="M3528 1266l-540 0c-16,0 -30,13 -30,30l0 415c0,17 14,30 30,30l201 0 -25 53 -11 0c-35,0 -63,28 -63,63 0,5 4,9 9,9l318 0c6,0 9,-4 9,-9 0,-1 0,-1 0,-2 -1,-34 -29,-61 -62,-61l-11 0 -26 -53 201 0c16,0 30,-13 30,-30l0 -415c0,-17 -14,-30 -30,-30zm-164 546c21,0 40,16 43,36l-298 0c5,-20 22,-36 44,-36 66,0 129,0 211,0zm-31 -18l-149 0 25 -53 97 0 27 53zm207 -83c0,7 -6,12 -12,12 -22,0 -432,0 -540,0 -6,0 -12,-5 -12,-12l0 -66 564 0 0 66zm0 -83l-564 0 0 -332c0,-7 6,-12 12,-12l540 0c6,0 12,5 12,12l0 332z"/>
     <path class="fil6" d="M3258 1713c16,0 30,-14 30,-30 0,-16 -14,-30 -30,-30 -16,0 -30,14 -30,30 0,16 14,30 30,30zm0 -42c6,0 12,6 12,12 0,6 -6,12 -12,12 -6,0 -12,-6 -12,-12 0,-6 6,-12 12,-12z"/>
     <path class="fil6" d="M3430 1475c3,-2 4,-6 4,-9 -1,-4 -1,-8 -5,-9l-106 -30c-3,-1 -7,0 -9,2 -3,3 -4,6 -3,9l30 107c1,3 3,6 7,6 4,1 7,-1 9,-3l14 -21 30 30c2,1 4,2 6,2 2,0 5,-1 7,-2l25 -26c4,-3 4,-9 0,-13l-30 -30 21 -13zm-9 48l-13 13 -31 -31c-2,-2 -3,-3 -6,-3l-1 0c-3,0 -6,2 -6,4l-10 13 -20 -71 71 20 -13 10c-3,1 -4,3 -4,6 0,3 1,5 3,7l30 32z"/>
     <path class="fil6" d="M3472 1324c-74,-26 -146,-26 -215,-2 -73,-24 -145,-24 -214,2 -5,1 -7,4 -7,8l0 266c0,2 1,5 4,7 2,1 4,2 8,1 67,-20 136,-21 203,-1 3,2 9,3 13,0 67,-19 135,-19 202,1 1,0 2,0 3,0 2,0 4,-1 5,-2 3,-2 4,-5 4,-7l0 -265c0,-4 -3,-7 -6,-8zm-226 260c-32,-8 -63,-13 -94,-13 -32,0 -65,5 -98,13l0 -246c62,-21 127,-21 192,0l0 246zm212 1c-33,-9 -64,-13 -97,-13 -32,0 -64,5 -95,13l0 -247c63,-21 127,-21 192,0l0 247z"/>
     <path class="fil6" d="M3077 1382c0,6 5,9 9,9l118 0c5,0 9,-3 9,-9 0,-5 -4,-9 -9,-9l-118 0c-5,0 -9,4 -9,9z"/>
     <path class="fil6" d="M3204 1420l-118 0c-5,0 -9,4 -9,9 0,6 5,9 9,9l118 0c5,0 9,-3 9,-9 0,-5 -4,-9 -9,-9z"/>
     <path class="fil6" d="M3204 1467l-118 0c-5,0 -9,3 -9,9 0,5 5,9 9,9l118 0c5,0 9,-4 9,-9 0,-6 -4,-9 -9,-9z"/>
     <path class="fil6" d="M3204 1514l-118 0c-5,0 -9,4 -9,9 0,5 4,9 9,9l118 0c5,0 9,-4 9,-9 0,-5 -4,-9 -9,-9z"/>
     <path class="fil6" d="M3298 1382c0,6 4,9 9,9l118 0c6,0 9,-3 9,-9 0,-5 -3,-9 -9,-9l-118 0c-5,0 -9,4 -9,9z"/>
    </g>
    <g>
     <path class="fil6" d="M4817 1330c1,-3 0,-6 -2,-8l-50 -52c-2,-2 -6,-4 -10,-4 0,0 0,0 0,0 0,0 0,0 0,0l-384 0c-8,0 -14,6 -14,14l0 161c0,5 4,9 9,9 4,0 8,-4 8,-9l0 -158 372 0 0 40c0,8 6,14 14,14l40 0 0 317c0,5 4,9 9,9 5,0 8,-4 8,-9l0 -323c0,0 0,-1 0,-1zm-54 -10l0 -24 24 24 -24 0z"/>
     <path class="fil6" d="M4809 1708c-5,0 -9,4 -9,9l0 101 -63 0 0 -26c12,-11 20,-26 20,-44 0,-31 -25,-56 -56,-56 -31,0 -56,25 -56,56 0,18 8,33 20,44l0 26 -291 0 0 -314c0,-5 -4,-9 -8,-9 -5,0 -9,4 -9,9l0 317c0,8 6,14 14,14l294 0 0 20c0,3 2,7 5,9 3,2 7,2 11,1l20 -9 20 9c2,0 3,1 5,1 2,0 4,-1 6,-2 3,-2 5,-6 5,-9l0 -20 66 0c8,0 14,-6 14,-14l0 -104c0,-5 -3,-9 -8,-9zm-90 137l-14 -6c-3,-1 -6,-1 -9,0l-13 6 0 -43c5,1 12,3 18,3 6,0 12,-2 18,-3l0 43 0 0zm-18 -58c-21,0 -39,-17 -39,-39 0,-21 18,-38 39,-38 21,0 39,17 39,38 0,22 -18,39 -39,39z"/>
     <path class="fil6" d="M4649 1369l-136 0c-5,0 -9,4 -9,9 0,5 4,9 9,9l136 0c5,0 9,-4 9,-9 0,-5 -4,-9 -9,-9z"/>
     <path class="fil6" d="M4665 1407l-169 0c-5,0 -9,4 -9,8 0,5 4,9 9,9l169 0c5,0 9,-4 9,-9 0,-4 -4,-8 -9,-8z"/>
     <path class="fil6" d="M4738 1470l-315 0c-4,0 -8,4 -8,9 0,5 4,9 8,9l315 0c5,0 9,-4 9,-9 0,-5 -4,-9 -9,-9z"/>
     <path class="fil6" d="M4680 1511l-257 0c-4,0 -8,4 -8,9 0,5 4,9 8,9l257 0c5,0 9,-4 9,-9 0,-5 -4,-9 -9,-9z"/>
     <path class="fil6" d="M4711 1552l-288 0c-4,0 -8,4 -8,9 0,5 4,9 8,9l288 0c5,0 9,-4 9,-9 0,-5 -4,-9 -9,-9z"/>
     <path class="fil6" d="M4701 1593l-278 0c-4,0 -8,4 -8,9 0,5 4,9 8,9l278 0c5,0 9,-4 9,-9 0,-5 -4,-9 -9,-9z"/>
     <path class="fil6" d="M4653 1634l-230 0c-4,0 -8,4 -8,9 0,5 4,9 8,9l230 0c5,0 9,-4 9,-9 0,-5 -4,-9 -9,-9z"/>
    </g>
    <path class="fil0" d="M5921 1394c94,0 170,75 170,169 0,94 -76,169 -170,169 -93,0 -169,-75 -169,-169 0,-94 76,-169 169,-169zm0 40c72,0 130,58 130,129 0,71 -58,129 -130,129 -71,0 -129,-58 -129,-129 0,-71 58,-129 129,-129z"/>
    <path class="fil0" d="M5921 1294c149,0 270,120 270,269 0,149 -121,269 -270,269 -148,0 -269,-120 -269,-269 0,-149 121,-269 269,-269zm0 40c127,0 230,102 230,229 0,127 -103,229 -230,229 -126,0 -229,-102 -229,-229 0,-127 103,-229 229,-229z"/>
    <path class="fil6" d="M6280 1280c-1,-4 -5,-6 -9,-6l-60 0 0 -61c0,-4 -3,-7 -6,-9 -4,-1 -8,0 -10,2l-71 71c-1,1 -2,4 -2,6l0 66 -208 208c-4,4 -4,10 0,13 2,2 4,3 7,3 2,0 4,-1 6,-3l13 -13c1,2 1,5 1,7 0,11 -9,20 -20,20 -12,0 -21,-9 -21,-20 0,-5 -4,-10 -9,-10 -6,0 -10,5 -10,10 0,22 18,39 40,39 21,0 39,-17 39,-39 0,-7 -2,-15 -6,-21l16 -15c7,10 11,23 11,36 0,33 -27,61 -60,61 -34,0 -61,-28 -61,-61 0,-34 27,-61 61,-61 4,0 9,1 14,2 5,1 10,-2 11,-7 1,-5 -2,-10 -7,-12 -6,-1 -12,-2 -18,-2 -44,0 -80,36 -80,80 0,44 36,79 80,79 43,0 79,-35 79,-79 0,-18 -6,-35 -17,-49l29 -30c19,22 29,50 29,79 0,66 -54,121 -120,121 -67,0 -121,-55 -121,-121 0,-67 54,-121 121,-121 20,0 41,5 59,15 5,3 10,1 13,-3 2,-5 1,-10 -4,-13 -21,-12 -44,-18 -68,-18 -77,0 -140,63 -140,140 0,77 63,139 140,139 77,0 139,-62 139,-139 0,-34 -12,-67 -34,-92l15 -15c26,29 41,67 41,107 0,89 -73,161 -161,161 -89,0 -161,-72 -161,-161 0,-89 72,-161 161,-161 30,0 59,8 85,24 4,3 10,2 13,-3 2,-4 1,-10 -3,-13 -29,-18 -62,-27 -95,-27 -99,0 -180,81 -180,180 0,99 81,179 180,179 99,0 179,-80 179,-179 0,-45 -16,-87 -46,-121l29 -29c38,41 59,94 59,150 0,122 -99,221 -221,221 -122,0 -221,-99 -221,-221 0,-122 99,-221 221,-221 44,0 87,13 124,38 5,3 10,2 13,-2 3,-5 2,-10 -2,-13 -40,-28 -87,-42 -135,-42 -133,0 -240,108 -240,240 0,132 107,240 240,240 132,0 239,-108 239,-240 0,-61 -22,-119 -63,-163l15 -15c45,48 70,111 70,178 0,144 -117,261 -261,261 -144,0 -262,-117 -262,-261 0,-144 118,-261 262,-261 56,0 109,17 154,50 5,3 10,3 14,-2 3,-4 2,-10 -2,-13 -49,-35 -106,-54 -166,-54 -75,0 -145,29 -198,82 -53,53 -82,123 -82,198 0,75 29,145 82,198 53,53 123,82 198,82 74,0 145,-29 198,-82 52,-53 82,-123 82,-198 0,-72 -27,-139 -76,-191l10 -10 66 0c3,0 5,-1 7,-3l70 -70c3,-3 3,-7 2,-10zm-83 64l-43 0 24 -24c3,-4 3,-10 0,-13 -4,-4 -10,-4 -14,0l-24 24 0 -44 52 -51 0 47c0,5 4,10 9,10l48 0 -52 51z"/>
    <g>
     <path class="fil6" d="M422 1276l-131 0c-5,0 -9,4 -9,9l0 132c0,3 1,6 4,7 1,1 3,2 5,2l131 0c5,0 9,-4 9,-9l0 -132c0,-5 -4,-9 -9,-9zm-23 19l-43 43 -43 -43 86 0zm-99 13l43 43 -43 43 0 -86zm13 99l43 -43 43 43 -86 0zm100 -13l-43 -43 43 -43 0 86z"/>
     <path class="fil6" d="M909 1276l-131 0c-5,0 -9,4 -9,9l0 45c0,5 4,10 9,10 5,0 9,-5 9,-10l0 -22 43 43 -43 43 0 -22c0,-5 -4,-9 -9,-9 -5,0 -9,4 -9,9l0 45c0,5 4,9 9,9l131 0c3,0 6,-2 8,-4 1,-2 1,-4 1,-5l0 -132c0,-5 -4,-9 -9,-9zm-108 19l86 0 -43 43 -43 -43zm0 112l43 -43 43 43 -86 0zm99 -13l-43 -43 43 -43 0 86z"/>
     <path class="fil6" d="M649 1314c-3,-4 -9,-4 -13,0l-51 51 -21 -22c-4,-3 -10,-3 -13,0 -4,4 -4,10 0,14l28 28c1,1 4,2 6,2 3,0 5,-1 7,-2l57 -58c4,-4 4,-10 0,-13z"/>
     <path class="fil6" d="M846 1456c-6,-1 -11,2 -12,7 0,0 -14,58 -78,86 -5,2 -7,8 -5,13 2,3 5,5 9,5 1,0 2,0 3,-1 73,-32 89,-96 90,-99 1,-5 -2,-10 -7,-11z"/>
     <path class="fil6" d="M444 1549c-64,-28 -78,-84 -78,-86 -1,-5 -6,-8 -12,-7 -5,1 -8,6 -7,11 1,3 17,67 90,99 1,1 2,1 3,1 4,0 7,-2 9,-5 2,-5 0,-11 -5,-13z"/>
     <path class="fil6" d="M754 1831l-8 0 0 -236c0,-18 -15,-33 -34,-33l0 0c-5,0 -10,1 -15,3l0 -2c0,-21 -17,-38 -38,-38 -7,0 -14,2 -20,5 -1,-19 -18,-35 -38,-35l-2 0c-8,0 -14,2 -20,6l0 -75 124 0c12,0 23,-10 23,-23l0 -104c0,-13 -11,-23 -23,-23l-206 0c-12,0 -23,10 -23,23l0 104c0,10 7,19 17,22l0 42c0,6 4,10 9,10 5,0 9,-4 9,-10l0 -56c0,-7 3,-13 8,-18 5,-5 11,-8 18,-8 14,0 25,12 25,26l0 123c0,5 4,9 10,9 5,0 9,-4 9,-9 0,-11 9,-20 20,-20l2 0c11,0 20,9 20,20l0 29c0,5 4,10 9,10 5,0 9,-5 9,-10 0,-5 2,-10 6,-14 4,-3 9,-5 14,-5 11,0 20,8 20,19l0 20c0,4 2,8 6,9l3 1c4,1 9,-1 11,-5 2,-5 7,-8 13,-8l0 0c8,0 15,7 15,15l0 236 -162 0 0 -4c0,-1 0,-1 0,-1 -2,-20 -17,-41 -46,-63 -31,-23 -49,-60 -49,-99l0 -22c0,-11 8,-19 19,-19l2 0 0 48c0,6 4,10 9,10 5,0 9,-4 9,-10l0 -57c0,0 0,0 0,-1l0 -104c0,-5 -4,-9 -9,-9 -5,0 -9,4 -9,9l0 95 -2 0c-21,0 -38,17 -38,38l0 22c0,45 21,87 56,114 25,18 38,35 39,49l0 4 -7 0c-5,0 -9,4 -9,9l0 62c0,5 4,9 9,9l128 0c2,0 5,-1 6,-3 2,-2 3,-4 3,-7 0,0 0,0 0,0 -1,-5 -5,-9 -10,-9 0,0 -1,0 -1,1l-116 0 0 -44 196 0 0 44 -35 0c-1,-1 -1,-1 -2,-1 -5,1 -9,5 -9,10 0,0 0,0 0,0 0,5 4,9 9,9l46 0c5,0 9,-4 9,-9l0 -62c0,-5 -4,-9 -9,-9zm-219 -464c-12,0 -23,4 -31,13 -5,5 -9,11 -11,17l0 -98c0,-2 2,-4 4,-4l206 0c2,0 4,2 4,4l0 104c0,2 -2,4 -4,4l-124 0c-2,-22 -21,-40 -44,-40z"/>
     <path class="fil6" d="M565 1857c-5,0 -9,4 -9,9l0 6c0,5 4,9 9,9 5,0 9,-4 9,-9l0 -6c0,-5 -4,-9 -9,-9z"/>
    </g>
   </g>
   <g>
    <circle class="fil0" cx="2635" cy="353" r="205"/>
    <path class="fil3" d="M2499 501l279 0c0,0 -5,-143 -142,-143 -138,0 -137,143 -137,143z"/>
    <polygon class="fil3" points="2555,356 2555,284 2518,262 2638,207 2755,263 2721,284 2721,356 "/>
    <g>
     <path class="fil7" d="M2489 501c0,-41 16,-78 43,-104 26,-27 63,-43 103,-43 41,0 78,16 104,43 27,26 43,63 43,104l-11 0c0,-38 -15,-72 -39,-96 -25,-25 -59,-40 -97,-40 -37,0 -71,15 -96,40 -24,24 -40,58 -40,96l-10 0z"/>
     <path class="fil7" d="M2566 501c0,-40 7,-76 19,-103 13,-27 30,-44 50,-44 20,0 38,17 51,44 12,27 19,63 19,103l-11 0c0,-39 -7,-73 -18,-98 -11,-24 -25,-38 -41,-38 -15,0 -29,14 -40,38 -11,25 -18,59 -18,98l-11 0z"/>
     <polygon class="fil7" points="2640,359 2640,501 2629,501 2629,359 "/>
     <polygon class="fil7" points="2500,455 2771,455 2771,466 2500,466 "/>
     <path class="fil7" d="M2638 207l131 56c-45,20 -89,39 -134,58 -44,-19 -88,-38 -133,-58l133 -57 3 1zm103 56l-106 -46 -105 46 105 46 106 -46z"/>
     <polygon class="fil7" points="2623,256 2648,256 2648,267 2623,267 "/>
     <polygon class="fil7" points="2550,356 2550,276 2561,276 2561,356 "/>
     <polygon class="fil7" points="2710,356 2710,276 2721,276 2721,356 "/>
     <polygon class="fil7" points="2630,337 2630,316 2641,316 2641,337 "/>
     <path class="fil7" d="M2766 263l0 71c0,4 -2,8 -5,11 -3,3 -7,5 -11,5l-1 0c-5,0 -9,-2 -12,-5 -3,-3 -4,-7 -4,-11l0 -17c0,-5 1,-9 4,-12 3,-3 7,-5 12,-5l1 0c1,0 3,1 5,1l0 -38 11 0zm-11 58l0 -5c0,-1 -1,-2 -2,-3 -1,-1 -2,-2 -3,-2l-1 0c-2,0 -3,1 -4,2 -1,1 -2,2 -2,4l0 17c0,1 1,3 2,4 1,1 2,1 4,1l1 0c1,0 2,0 3,-1 1,-1 2,-3 2,-4l0 -13z"/>
    </g>
   </g>
   <g>
    <circle class="fil0" cx="3220" cy="353" r="205"/>
    <path class="fil3" d="M3188 427l-50 0c0,0 -20,-5 -20,-25 0,-20 -15,-26 -15,-26 0,0 -18,-4 -6,-24 11,-20 24,-42 24,-42l0 -28c0,0 2,-25 37,-50 35,-25 45,-20 75,-20 30,0 61,-3 90,30 28,33 25,35 25,85 0,50 0,95 0,95 0,0 0,10 -10,20 -10,10 -20,20 -20,20l0 35 -130 0 0 -70z"/>
    <g>
     <path class="fil7" d="M3170 433l-38 0 0 0c-1,0 -19,-3 -19,-26 0,-5 1,-9 1,-12 0,-3 0,-5 0,-7 0,-3 0,-4 -3,-4 -6,0 -14,-1 -19,-4 -2,-1 -4,-3 -5,-5 -2,-2 -3,-4 -3,-7 0,-3 1,-7 4,-11 8,-14 24,-40 28,-47l0 -23c0,0 0,-41 41,-64 33,-19 51,-18 63,-17 1,0 3,0 5,0l5 0c18,-1 61,-4 85,20l5 5c24,24 35,35 35,75 0,40 -3,117 -3,117l0 1c-3,18 -9,23 -20,30 -2,1 -5,2 -7,4l0 44 -144 0 0 -204 1 -2 29 -58 31 56 1 2 0 67c0,0 0,11 11,11l20 0 0 11 -20 0c-21,0 -22,-22 -22,-22l0 -65 -21 -37 -19 38 0 192 122 0 0 -38 2 -2c4,-3 7,-5 10,-7 8,-5 13,-8 15,-22 1,-6 3,-76 3,-116 0,-36 -10,-46 -32,-67l-4 -5c-21,-21 -60,-18 -77,-18l-6 1c-2,0 -4,0 -6,-1 -10,0 -26,-1 -57,16 -35,21 -35,55 -35,55l0 25 -1 3c0,0 -20,32 -29,47 -1,3 -2,5 -2,6 0,1 0,1 1,1 0,1 0,1 1,2 4,2 9,2 14,2 12,0 14,5 14,15 0,2 0,5 0,7 -1,3 -1,7 -1,12 0,12 7,15 9,15l37 0 0 11z"/>
     <polygon class="fil7" points="3191,285 3213,298 3235,287 3240,297 3213,310 3185,295 "/>
     <polygon class="fil7" points="3207,421 3207,304 3218,304 3218,421 "/>
     <polygon class="fil7" points="3207,446 3207,434 3218,434 3218,446 "/>
     <path class="fil7" d="M3262 330l39 0 0 -29c0,0 0,-14 -15,-29 -15,-15 -36,-21 -37,-21l4 -10c0,0 23,6 41,23 17,18 17,37 17,37l0 40 -49 0 0 -11z"/>
     <polygon class="fil7" points="3287,373 3299,373 3299,384 3287,384 "/>
    </g>
   </g>
   <g>
    <circle class="fil0" cx="3804" cy="353" r="205"/>
    <path class="fil3" d="M3678 282l-22 0 2 200 23 19 246 0 21 -19 -1 -203 -15 0 0 -23 -34 1 0 -45c0,0 -25,5 -60,30 -35,25 -29,20 -29,20 0,0 -16,-10 -61,-10 -45,0 -70,10 -70,10l0 20z"/>
    <g>
     <path class="fil8" d="M3824 346c1,1 3,2 4,2 1,0 2,0 3,0 0,0 29,-15 43,-20 3,0 4,-3 3,-6 0,-2 -3,-4 -6,-3 -15,5 -44,19 -45,20 -2,1 -3,4 -2,7z"/>
     <path class="fil8" d="M3828 289c1,0 2,0 3,0 0,0 29,-15 43,-20 3,-1 4,-3 3,-6 0,-2 -3,-4 -6,-3 -15,5 -44,19 -45,20 -2,1 -3,4 -2,7 1,1 3,2 4,2z"/>
     <path class="fil8" d="M3947 279c-3,0 -5,3 -5,5l0 193c0,8 -7,14 -15,14l-118 0 0 -11c7,-2 26,-8 44,-8 43,0 72,9 72,9 2,1 4,1 5,0 1,-1 2,-3 2,-4l0 -217c0,-3 -2,-5 -4,-5 0,0 -4,-1 -10,-2 -3,-1 -6,1 -6,4 -1,2 1,5 4,5 2,1 4,1 6,2l0 206c-11,-3 -36,-8 -69,-8 -21,0 -43,7 -49,9 -6,-2 -23,-9 -45,-9 -34,0 -62,5 -74,8l0 -207c10,-2 39,-8 74,-8 18,0 34,5 40,8l0 194c0,2 1,3 2,4 2,1 4,1 5,0 1,0 50,-29 93,-44 2,0 3,-2 3,-4l0 -203c0,-1 0,-3 -2,-4 -1,-1 -3,-1 -4,0 -40,15 -80,39 -80,40 -2,1 -3,4 -2,6 2,3 5,3 7,2 1,0 35,-22 72,-36l0 191c-34,12 -69,31 -84,39l0 -188c0,-2 -1,-4 -3,-5 -1,0 -21,-10 -47,-10 -44,0 -78,10 -80,10 -2,1 -3,2 -3,5l0 217c0,1 0,3 2,4 0,0 1,1 3,1 0,0 0,-1 1,-1 0,0 34,-9 77,-9 18,0 34,5 40,8l0 11 -118 0c-9,0 -15,-6 -15,-14l0 -193c0,-2 -2,-5 -5,-5 -3,0 -5,3 -5,5l0 193c0,13 11,24 25,24l246 0c14,0 25,-11 25,-24l0 -193c0,-2 -3,-5 -5,-5z"/>
     <path class="fil8" d="M3824 316c1,2 3,3 4,3 1,0 2,0 3,-1 0,0 29,-15 43,-19 3,-1 4,-4 3,-6 0,-3 -3,-4 -6,-4 -15,5 -44,20 -45,21 -2,1 -3,4 -2,6z"/>
     <path class="fil8" d="M3824 375c1,2 3,3 4,3 1,0 2,0 3,-1 0,0 29,-14 43,-19 3,-1 4,-4 3,-6 0,-3 -3,-4 -6,-3 -15,4 -44,19 -45,20 -2,1 -3,4 -2,6z"/>
     <path class="fil8" d="M3775 297c-30,-7 -65,2 -66,2 -3,1 -4,4 -4,6 1,3 3,4 5,4 1,0 1,0 1,0 1,0 34,-9 62,-2 3,0 5,-1 6,-4 1,-3 -1,-5 -4,-6z"/>
     <path class="fil8" d="M3775 327c-30,-8 -65,1 -66,2 -3,1 -4,3 -4,6 1,2 3,4 5,4 1,0 1,0 1,-1 1,0 34,-8 62,-2 3,1 5,-1 6,-4 1,-2 -1,-5 -4,-5z"/>
     <path class="fil8" d="M3824 405c1,2 3,3 4,3 1,0 2,-1 3,-1 0,0 29,-15 43,-19 3,-1 4,-4 3,-7 0,-2 -3,-4 -6,-3 -15,5 -44,20 -45,20 -2,1 -3,4 -2,7z"/>
     <path class="fil8" d="M3775 356c-30,-7 -65,2 -66,2 -3,1 -4,4 -4,6 1,3 3,4 5,4 1,0 1,0 1,0 1,0 34,-9 62,-2 3,0 5,-1 6,-4 1,-3 -1,-5 -4,-6z"/>
     <path class="fil8" d="M3775 415c-30,-7 -65,2 -66,3 -3,0 -4,3 -4,6 1,2 3,3 5,3 1,0 1,0 1,0 1,0 34,-9 62,-2 3,0 5,-1 6,-4 1,-2 -1,-5 -4,-6z"/>
     <path class="fil8" d="M3775 386c-30,-7 -65,2 -66,2 -3,1 -4,3 -4,6 1,2 3,4 5,4 1,0 1,0 1,0 1,-1 34,-9 62,-3 3,1 5,-1 6,-3 1,-3 -1,-6 -4,-6z"/>
    </g>
   </g>
   <g>
    <circle class="fil0" cx="4388" cy="353" r="205"/>
    <rect class="fil3" x="4329" y="213" width="101.327" height="87.8387" rx="20" ry="20"/>
    <rect class="fil3" x="4356" y="309" width="101.327" height="87.8387" rx="20" ry="20"/>
    <rect class="fil3" x="4397" y="403" width="101.327" height="87.8387" rx="20" ry="20"/>
    <rect class="fil3" x="4279" y="403" width="101.327" height="87.8387" rx="20" ry="20"/>
    <g>
     <path class="fil8" d="M4482 396l-24 0c1,-2 1,-4 1,-6l0 -73c0,-9 -7,-16 -16,-16l-13 0c1,-2 1,-4 1,-7l0 -72c0,-9 -7,-17 -16,-17l-73 0c-9,0 -16,8 -16,17l0 72c0,9 7,17 16,17l13 0c-1,2 -1,4 -1,6l0 73c0,2 0,4 1,6l-61 0c-9,0 -16,7 -16,16l0 73c0,9 7,16 16,16l72 0c9,0 17,-7 17,-16l0 -73c0,-2 -1,-4 -1,-6l12 0c-1,2 -1,4 -1,6l0 73c0,9 7,16 16,16l73 0c9,0 16,-7 16,-16l0 -73c0,-9 -7,-16 -16,-16zm-140 -95c-3,0 -6,-3 -6,-7l0 -72c0,-4 3,-6 6,-6l73 0c3,0 6,2 6,6l0 72c0,4 -3,7 -6,7l-45 0 -28 0 0 0zm31 184c0,3 -3,6 -7,6l-72 0c-4,0 -6,-3 -6,-6l0 -73c0,-3 2,-6 6,-6l72 0c4,0 7,3 7,6l0 73 0 0zm-3 -89c-3,0 -6,-3 -6,-6l0 -73c0,-3 3,-6 6,-6l73 0c3,0 6,3 6,6l0 73c0,3 -3,6 -6,6l-73 0zm118 89c0,3 -3,6 -6,6l-73 0c-3,0 -6,-3 -6,-6l0 -73c0,-3 3,-6 6,-6l73 0c3,0 6,3 6,6l0 73z"/>
     <path class="fil8" d="M4378 225c-11,0 -20,9 -20,21l0 40c0,3 2,5 5,5 3,0 5,-2 5,-5l0 -19 21 0 0 19c0,3 2,5 5,5 3,0 5,-2 5,-5l0 -40c0,-12 -9,-21 -21,-21zm11 32l-21 0 0 -11c0,-6 5,-11 10,-11 6,0 11,5 11,11l0 11 0 0z"/>
     <path class="fil8" d="M4422 361c-3,0 -5,2 -5,5 0,6 -5,10 -10,10 -6,0 -11,-4 -11,-10l0 -25c0,-6 5,-11 11,-11 5,0 10,5 10,11 0,3 2,5 5,5 3,0 5,-2 5,-5 0,-12 -9,-21 -20,-21 -12,0 -21,9 -21,21l0 25c0,11 9,21 21,21 11,0 20,-10 20,-21 0,-3 -2,-5 -5,-5z"/>
     <path class="fil8" d="M4330 415l-15 0c-3,0 -5,3 -5,5l0 57c0,3 2,5 5,5l15 0c12,0 21,-9 21,-21l0 -25c0,-11 -9,-21 -21,-21zm11 46c0,6 -5,11 -11,11l-10 0 0 -47 10 0c6,0 11,5 11,11l0 25 0 0z"/>
     <path class="fil8" d="M4458 445c2,-3 3,-7 3,-10 0,-11 -8,-20 -19,-20l-17 0c-3,0 -5,3 -5,5l0 57c0,3 2,5 5,5l27 0c11,0 19,-9 19,-19 0,-9 -5,-16 -13,-18zm-28 -20l12 0c5,0 9,5 9,10 0,5 -4,9 -9,9l-12 0 0 -19zm22 47l-22 0 0 -18 12 0 10 0c5,0 9,4 9,9 0,5 -4,9 -9,9z"/>
    </g>
   </g>
   <path class="fil3" d="M4978 276l0 -25c0,0 10,-10 10,-20 0,-10 -5,-20 -35,-20 -30,0 -60,25 -85,50 -25,25 -35,65 -35,90 0,25 0,50 30,85 30,35 60,50 60,50 0,0 18,10 50,10 32,0 55,-10 65,-15 10,-5 65,-45 70,-75 5,-30 0,-60 0,-60 0,0 5,-20 -20,-35 -25,-15 -40,-15 -40,-15l50 -45c0,0 15,-15 10,-20 -5,-5 -28,-8 -60,10 -33,17 -70,35 -70,35z"/>
   <g>
    <circle class="fil8" cx="5019" cy="342" r="6"/>
    <path class="fil8" d="M5020 367c-3,-1 -6,1 -6,4 -2,11 -11,20 -24,24 -15,5 -35,3 -47,-10 -2,-3 -6,-3 -8,-1 -3,3 -3,6 -1,9 8,7 17,12 28,15 4,0 8,1 12,1 7,0 13,-1 19,-3 18,-5 30,-18 32,-33 1,-3 -1,-6 -5,-6z"/>
    <path class="fil8" d="M5101 315c-11,-12 -25,-20 -43,-23 17,-11 31,-22 42,-32 15,-15 21,-25 16,-33 -5,-9 -19,-8 -44,0 -22,7 -48,20 -75,36 -5,2 -10,5 -14,8 -4,-10 -1,-20 6,-30 6,-7 7,-16 3,-23 -3,-8 -12,-13 -22,-13l0 0c-35,0 -70,14 -97,40 -27,25 -44,58 -47,94 -4,43 10,83 38,114 28,31 68,48 109,48 22,0 43,-4 62,-12 17,-7 33,-18 46,-31 12,-12 21,-26 28,-42 6,-15 10,-31 10,-46 0,-21 -6,-40 -18,-55zm-118 -31c7,-4 13,-8 19,-11 25,-15 50,-27 71,-34 22,-8 31,-7 33,-6 0,1 -2,7 -16,21 -13,11 -30,24 -51,37 -6,4 -13,8 -19,12 -10,5 -19,10 -28,14 -2,-5 -4,-10 -7,-15 -2,-5 -6,-9 -9,-13 2,-2 5,-3 7,-5zm-1 39c-17,7 -32,13 -44,17 0,-3 -1,-6 -3,-9 -1,-2 -3,-5 -5,-7 9,-8 21,-18 36,-29 4,4 7,8 9,13 3,5 5,10 7,15zm125 47c-1,58 -52,120 -134,120 -38,0 -74,-16 -100,-45 -26,-28 -39,-66 -36,-105 6,-68 66,-123 133,-123l0 0c6,0 10,2 12,6 2,3 1,7 -2,11 -10,13 -13,29 -7,43 -3,2 -6,4 -9,6 0,0 0,0 0,0 -19,12 -34,25 -44,35 -8,-2 -17,-2 -24,3 -12,6 -28,39 -31,45 -1,2 -1,4 0,6 1,1 3,2 5,2 3,1 12,1 22,1 12,0 26,-1 33,-4 7,-5 12,-11 13,-19 15,-4 33,-11 53,-21 11,-6 23,-12 35,-18 5,-4 11,-7 17,-11 0,0 0,0 0,0 48,2 65,36 64,68zm-179 -23c-1,5 -4,11 -9,14 -6,3 -24,3 -40,2 7,-13 17,-29 23,-32 5,-3 11,-4 16,-1 3,2 6,4 7,7 2,3 3,6 3,10z"/>
    <path class="fil8" d="M4927 241c-13,0 -23,11 -23,23 0,13 10,23 23,23 13,0 23,-10 23,-23 0,-12 -10,-23 -23,-23zm0 35c-6,0 -12,-5 -12,-12 0,-6 6,-11 12,-11 6,0 11,5 11,11 0,7 -5,12 -11,12z"/>
    <path class="fil8" d="M4898 396c-13,0 -23,11 -23,24 0,12 10,23 23,23 13,0 23,-11 23,-23 0,-13 -10,-24 -23,-24zm0 35c-6,0 -12,-5 -12,-11 0,-7 6,-12 12,-12 6,0 12,5 12,12 0,6 -6,11 -12,11z"/>
    <path class="fil8" d="M4956 431c-13,0 -23,10 -23,23 0,13 10,23 23,23 13,0 23,-10 23,-23 0,-13 -10,-23 -23,-23zm0 35c-7,0 -12,-5 -12,-12 0,-6 5,-11 12,-11 6,0 11,5 11,11 0,7 -5,12 -11,12z"/>
    <path class="fil8" d="M5025 420c-13,0 -23,10 -23,23 0,12 10,23 23,23 13,0 23,-11 23,-23 0,-13 -10,-23 -23,-23zm0 34c-6,0 -11,-5 -11,-11 0,-7 5,-12 11,-12 7,0 12,5 12,12 0,6 -5,11 -12,11z"/>
    <path class="fil8" d="M5071 362c-12,0 -23,10 -23,23 0,13 11,23 23,23 13,0 23,-10 23,-23 0,-13 -10,-23 -23,-23zm0 34c-6,0 -11,-5 -11,-11 0,-7 5,-12 11,-12 7,0 12,5 12,12 0,6 -5,11 -12,11z"/>
   </g>
   <g>
    <circle class="fil0" cx="5556" cy="353" r="205"/>
    <g>
     <path class="fil3" d="M5568 497l-150 0 0 -255 50 0 0 -21 30 1c0,0 0,-10 10,-10 10,0 40,0 40,0l0 10 30 0 -2 14 0 5 52 1 0 170 40 -40c0,0 40,10 20,35 -20,25 -75,75 -75,75l-45 15z"/>
     <g>
      <path class="fil8" d="M5694 387l-15 -15c-5,-5 -15,-5 -21,0l-78 78 -11 40 -3 3c-2,2 -2,5 0,7l0 0 1 0c0,1 2,1 3,1 1,0 3,0 4,-1l2 -3 40 -11 78 -78c6,-6 6,-15 0,-21zm-102 66l52 -52 21 22 -52 52 -21 -22zm-5 10l16 16 -22 6 6 -22zm100 -62l-15 14 -21 -21 14 -14c2,-2 5,-2 7,0l15 14c2,2 2,5 0,7z"/>
      <path class="fil8" d="M5450 388l132 0c2,0 5,-2 5,-5 0,-3 -3,-5 -5,-5l-132 0c-3,0 -5,2 -5,5 0,3 2,5 5,5z"/>
      <path class="fil8" d="M5561 409l-111 0c-3,0 -5,2 -5,5 0,2 2,5 5,5l111 0c3,0 5,-3 5,-5 0,-3 -2,-5 -5,-5z"/>
      <path class="fil8" d="M5450 297l66 0c2,0 5,-2 5,-5 0,-3 -3,-5 -5,-5l-66 0c-3,0 -5,2 -5,5 0,3 2,5 5,5z"/>
      <path class="fil8" d="M5516 449c2,0 5,-2 5,-5 0,-3 -3,-5 -5,-5l-66 0c-3,0 -5,2 -5,5 0,3 2,5 5,5l66 0z"/>
      <path class="fil8" d="M5597 317l-147 0c-3,0 -5,2 -5,5 0,3 2,5 5,5l147 0c3,0 5,-2 5,-5 0,-3 -2,-5 -5,-5z"/>
      <path class="fil8" d="M5450 358l71 0c2,0 5,-3 5,-5 0,-3 -3,-5 -5,-5l-71 0c-3,0 -5,2 -5,5 0,2 2,5 5,5z"/>
      <path class="fil8" d="M5602 353c0,-3 -2,-5 -5,-5l-36 0c-3,0 -5,2 -5,5 0,2 2,5 5,5l36 0c3,0 5,-3 5,-5z"/>
      <path class="fil8" d="M5545 356c0,-1 1,-2 1,-3 0,-2 -1,-3 -1,-4 -2,-2 -6,-2 -8,0 -1,1 -1,2 -1,4 0,1 0,2 1,3 1,1 3,2 4,2 1,0 3,-1 4,-2z"/>
      <path class="fil8" d="M5541 490l-117 0 0 -244 36 0 0 10c0,3 2,5 5,5l117 0c2,0 5,-2 5,-5l0 -10 35 0 0 112c0,3 2,5 5,5 3,0 5,-2 5,-5l0 -117c0,-3 -2,-5 -5,-5l-40 0 0 -10c0,-3 -3,-5 -5,-5l-31 0 0 -10c0,-3 -2,-6 -5,-6l-46 0c-2,0 -5,3 -5,6l0 10 -30 0c-3,0 -5,2 -5,5l0 10 -41 0c-3,0 -5,2 -5,5l0 254c0,3 2,5 5,5l122 0c3,0 5,-2 5,-5 0,-3 -2,-5 -5,-5zm-36 -274l36 0 0 10 0 10 -36 0 0 -10 0 -10zm-35 15l25 0 0 10c0,3 3,5 5,5l46 0c3,0 5,-2 5,-5l0 -10 26 0 0 10 0 10 -107 0 0 -10 0 -10z"/>
     </g>
    </g>
   </g>
   <g>
    <path class="fil9" d="M1853 392c-8,-8 -17,-8 -25,0 -6,6 -12,12 -18,18 -2,2 -3,2 -5,1 -4,-2 -8,-4 -12,-6 -17,-11 -31,-25 -44,-41 -6,-8 -12,-16 -16,-25 -1,-2 -1,-3 1,-5 6,-6 12,-12 18,-17 8,-9 8,-18 0,-27 -5,-4 -10,-9 -14,-14 -5,-4 -10,-9 -15,-14 -8,-8 -17,-8 -25,0 -6,6 -12,12 -18,18 -6,5 -9,12 -9,19 -1,13 2,25 6,36 9,24 22,45 39,64 22,26 48,47 78,62 14,6 28,11 44,12 11,1 20,-2 27,-10 6,-6 11,-11 17,-16 8,-9 8,-18 0,-26 -10,-10 -19,-19 -29,-29z"/>
    <path class="fil9" d="M1844 352l18 -3c-3,-17 -11,-32 -23,-44 -13,-13 -29,-21 -47,-24l-3 19c14,2 27,8 37,18 9,9 15,21 18,34z"/>
    <path class="fil9" d="M1872 272c-21,-21 -48,-35 -77,-39l-3 19c26,3 49,15 67,33 18,18 29,40 33,64l19 -3c-5,-28 -18,-54 -39,-74z"/>
   </g>
   <g>
    <polygon class="fil10" points="1259,7105 706,6805 152,7105 152,7143 1259,7143 "/>
    <path class="fil2" d="M809 6964c0,57 -47,104 -103,104 -57,0 -104,-47 -104,-104 0,-57 47,-103 104,-103 56,0 103,46 103,103z"/>
    <path class="fil11" d="M621 6964c0,-53 41,-97 94,-102 -3,-1 -6,-1 -9,-1 -57,0 -104,46 -104,103 0,57 47,104 104,104 3,0 6,-1 9,-1 -53,-5 -94,-49 -94,-103z"/>
    <path class="fil12" d="M790 6964c0,54 -41,98 -94,103 4,0 7,1 10,1 57,0 103,-47 103,-104 0,-57 -46,-103 -103,-103 -3,0 -6,1 -10,1 53,5 94,49 94,102z"/>
    <polygon class="fil9" points="724,6815 706,6805 152,7105 152,7143 190,7143 190,7105 "/>
    <polygon class="fil13" points="724,6815 1259,7105 1259,7143 1221,7143 1221,7105 706,6825 "/>
    <rect class="fil14" x="227" y="7143" width="956.245" height="37.5008"/>
    <rect class="fil14" x="284" y="7180" width="187.498" height="37.5008"/>
    <circle class="fil0" cx="471" cy="7274" r="38"/>
    <circle class="fil0" cx="284" cy="7274" r="38"/>
    <path class="fil15" d="M265 7274c0,-18 12,-32 28,-36 -3,-1 -6,-2 -9,-2 -21,0 -38,17 -38,38 0,21 17,37 38,37 3,0 6,0 9,-1 -16,-4 -28,-19 -28,-36z"/>
    <path class="fil15" d="M490 7274c0,17 -12,32 -28,36 3,1 6,1 9,1 21,0 38,-17 38,-37 0,-21 -17,-38 -38,-38 -3,0 -6,1 -9,2 16,4 28,18 28,36z"/>
    <polygon class="fil10" points="284,7218 284,7236 302,7236 321,7274 321,7724 434,7724 434,7274 452,7236 471,7236 471,7218 "/>
    <rect class="fil14" x="612" y="7180" width="187.498" height="37.5008"/>
    <path class="fil0" d="M837 7274c0,21 -17,37 -38,37 -20,0 -37,-16 -37,-37 0,-21 17,-38 37,-38 21,0 38,17 38,38z"/>
    <circle class="fil0" cx="612" cy="7274" r="38"/>
    <path class="fil15" d="M593 7274c0,-18 12,-32 28,-36 -3,-1 -6,-2 -9,-2 -21,0 -38,17 -38,38 0,21 17,37 38,37 3,0 6,0 9,-1 -16,-4 -28,-19 -28,-36z"/>
    <path class="fil15" d="M818 7274c0,17 -12,32 -28,36 3,1 6,1 9,1 21,0 38,-17 38,-37 0,-21 -17,-38 -38,-38 -3,0 -6,1 -9,2 16,4 28,18 28,36z"/>
    <polygon class="fil10" points="612,7218 612,7236 631,7236 649,7274 649,7724 762,7724 762,7274 781,7236 799,7236 799,7218 "/>
    <rect class="fil14" x="940" y="7180" width="187.498" height="37.5008"/>
    <path class="fil0" d="M1165 7274c0,21 -17,37 -38,37 -20,0 -37,-16 -37,-37 0,-21 17,-38 37,-38 21,0 38,17 38,38z"/>
    <path class="fil0" d="M977 7274c0,21 -16,37 -37,37 -21,0 -38,-16 -38,-37 0,-21 17,-38 38,-38 21,0 37,17 37,38z"/>
    <path class="fil15" d="M921 7274c0,-18 12,-32 28,-36 -3,-1 -6,-2 -9,-2 -21,0 -38,17 -38,38 0,21 17,37 38,37 3,0 6,0 9,-1 -16,-4 -28,-19 -28,-36z"/>
    <path class="fil15" d="M1146 7274c0,17 -12,32 -28,36 3,1 6,1 9,1 21,0 38,-17 38,-37 0,-21 -17,-38 -38,-38 -3,0 -6,1 -9,2 16,4 28,18 28,36z"/>
    <polygon class="fil10" points="940,7218 940,7236 959,7236 977,7274 977,7724 1090,7724 1090,7274 1109,7236 1127,7236 1127,7218 "/>
    <rect class="fil10" x="284" y="7761" width="187.498" height="56.2491"/>
    <rect class="fil10" x="302" y="7724" width="150" height="37.5008"/>
    <rect class="fil10" x="612" y="7761" width="187.498" height="56.2491"/>
    <rect class="fil10" x="631" y="7724" width="150.003" height="37.5008"/>
    <rect class="fil10" x="940" y="7761" width="187.498" height="56.2491"/>
    <rect class="fil10" x="959" y="7724" width="149.997" height="37.5008"/>
    <polygon class="fil10" points="171,7874 1240,7874 1221,7855 190,7855 "/>
    <polygon class="fil10" points="134,7911 1277,7911 1259,7893 152,7893 "/>
    <polygon class="fil10" points="1202,7836 1184,7818 227,7818 209,7836 "/>
    <rect class="fil15" x="415" y="7274" width="18.7766" height="449.994"/>
    <rect class="fil15" x="743" y="7274" width="18.7766" height="449.994"/>
    <rect class="fil15" x="1071" y="7274" width="18.7766" height="449.994"/>
    <rect class="fil16" x="302" y="7724" width="18.7497" height="37.5008"/>
    <rect class="fil16" x="227" y="7143" width="18.7497" height="37.5008"/>
    <rect class="fil17" x="434" y="7724" width="18.7497" height="37.5008"/>
    <rect class="fil17" x="1165" y="7143" width="18.7525" height="37.5008"/>
    <rect class="fil17" x="452" y="7761" width="18.7497" height="56.2491"/>
    <rect class="fil14" x="452" y="7180" width="18.7497" height="37.5008"/>
    <rect class="fil16" x="284" y="7761" width="18.7497" height="56.2491"/>
    <rect class="fil14" x="284" y="7180" width="18.7497" height="37.5008"/>
    <rect class="fil14" x="781" y="7180" width="18.7483" height="37.5008"/>
    <rect class="fil14" x="612" y="7180" width="18.7497" height="37.5008"/>
    <rect class="fil14" x="1109" y="7180" width="18.7483" height="37.5008"/>
    <rect class="fil14" x="940" y="7180" width="18.7525" height="37.5008"/>
    <rect class="fil16" x="631" y="7724" width="18.7497" height="37.5008"/>
    <rect class="fil17" x="762" y="7724" width="18.7525" height="37.5008"/>
    <rect class="fil17" x="781" y="7761" width="18.7483" height="56.2491"/>
    <rect class="fil16" x="612" y="7761" width="18.7497" height="56.2491"/>
    <rect class="fil16" x="959" y="7724" width="18.7483" height="37.5008"/>
    <rect class="fil17" x="1090" y="7724" width="18.7483" height="37.5008"/>
    <rect class="fil17" x="1109" y="7761" width="18.7483" height="56.2491"/>
    <rect class="fil16" x="940" y="7761" width="18.7525" height="56.2491"/>
    <path class="fil8" d="M472 7283c-5,0 -10,-4 -10,-9 0,-5 4,-10 10,-10l0 0c5,0 9,5 9,10 0,5 -4,9 -9,9z"/>
    <path class="fil8" d="M1296 7939l-1181 0c-5,0 -9,-4 -9,-9 0,-5 4,-9 9,-9l1181 0c5,0 10,4 10,9 0,5 -5,9 -10,9z"/>
    <path class="fil8" d="M1259 7902l-1107 0c-5,0 -9,-4 -9,-9 0,-6 4,-10 9,-10l1107 0c5,0 9,4 9,10 0,5 -4,9 -9,9z"/>
    <path class="fil8" d="M1221 7864l-1031 0c-5,0 -9,-4 -9,-9 0,-5 4,-9 9,-9l1031 0c5,0 10,4 10,9 0,5 -5,9 -10,9z"/>
    <path class="fil8" d="M1184 7827l-957 0c-5,0 -9,-4 -9,-9 0,-6 4,-10 9,-10l957 0c5,0 9,4 9,10 0,5 -4,9 -9,9z"/>
    <path class="fil8" d="M284 7808c-5,0 -10,-4 -10,-9l0 -38c0,-5 5,-9 10,-9 5,0 9,4 9,9l0 38c0,5 -4,9 -9,9z"/>
    <path class="fil8" d="M471 7771l-187 0c-5,0 -10,-5 -10,-10 0,-5 5,-9 10,-9l187 0c5,0 10,4 10,9 0,5 -5,10 -10,10z"/>
    <path class="fil8" d="M471 7808c-5,0 -9,-4 -9,-9l0 -38c0,-5 4,-9 9,-9 5,0 10,4 10,9l0 38c0,5 -5,9 -10,9z"/>
    <path class="fil8" d="M302 7752c-5,0 -9,-4 -9,-9l0 -19c0,-5 4,-10 9,-10 6,0 10,5 10,10l0 19c0,5 -4,9 -10,9z"/>
    <path class="fil8" d="M452 7752c-5,0 -9,-4 -9,-9l0 -19c0,-5 4,-10 9,-10 6,0 10,5 10,10l0 19c0,5 -4,9 -10,9z"/>
    <path class="fil8" d="M452 7733l-150 0c-5,0 -9,-4 -9,-9 0,-5 4,-10 9,-10l150 0c6,0 10,5 10,10 0,5 -4,9 -10,9z"/>
    <path class="fil8" d="M321 7714c-5,0 -9,-4 -9,-9l0 -431c0,-5 4,-10 9,-10 5,0 10,5 10,10l0 431c0,5 -5,9 -10,9z"/>
    <path class="fil8" d="M396 7714c-5,0 -9,-4 -9,-9l0 -431c0,-5 4,-10 9,-10 5,0 10,5 10,10l0 431c0,5 -5,9 -10,9z"/>
    <path class="fil8" d="M434 7714c-5,0 -10,-4 -10,-9l0 -431c0,-5 5,-10 10,-10 5,0 9,5 9,10l0 431c0,5 -4,9 -9,9z"/>
    <path class="fil8" d="M359 7714c-5,0 -10,-4 -10,-9l0 -431c0,-5 5,-10 10,-10 5,0 9,5 9,10l0 431c0,5 -4,9 -9,9z"/>
    <path class="fil8" d="M471 7321c-5,0 -9,-5 -9,-10 0,-5 4,-9 9,-9 16,0 28,-13 28,-28 0,-16 -12,-28 -28,-28 -15,0 -28,12 -28,28 0,5 -4,9 -9,9 -5,0 -10,-4 -10,-9 0,-26 21,-47 47,-47 26,0 47,21 47,47 0,26 -21,47 -47,47z"/>
    <path class="fil8" d="M284 7283c-5,0 -9,-4 -9,-9 0,-5 4,-10 9,-10l0 0c5,0 10,5 10,10 0,5 -5,9 -10,9z"/>
    <path class="fil8" d="M284 7321c-26,0 -47,-21 -47,-47 0,-26 21,-47 47,-47 26,0 47,21 47,47 0,5 -5,9 -10,9 -5,0 -9,-4 -9,-9 0,-16 -13,-28 -28,-28 -16,0 -28,12 -28,28 0,15 12,28 28,28 5,0 9,4 9,9 0,5 -4,10 -9,10z"/>
    <path class="fil8" d="M471 7227l-187 0c-5,0 -10,-4 -10,-9 0,-6 5,-10 10,-10l187 0c5,0 10,4 10,10 0,5 -5,9 -10,9z"/>
    <path class="fil8" d="M1128 7283c-5,0 -9,-4 -9,-9 0,-5 4,-10 9,-10l0 0c5,0 9,5 9,10 0,5 -4,9 -9,9z"/>
    <path class="fil8" d="M940 7808c-5,0 -9,-4 -9,-9l0 -38c0,-5 4,-9 9,-9 5,0 9,4 9,9l0 38c0,5 -4,9 -9,9z"/>
    <path class="fil8" d="M1127 7771l-187 0c-5,0 -9,-5 -9,-10 0,-5 4,-9 9,-9l187 0c6,0 10,4 10,9 0,5 -4,10 -10,10z"/>
    <path class="fil8" d="M1127 7808c-5,0 -9,-4 -9,-9l0 -38c0,-5 4,-9 9,-9 6,0 10,4 10,9l0 38c0,5 -4,9 -10,9z"/>
    <path class="fil8" d="M959 7752c-5,0 -10,-4 -10,-9l0 -19c0,-5 5,-10 10,-10 5,0 9,5 9,10l0 19c0,5 -4,9 -9,9z"/>
    <path class="fil8" d="M1109 7752c-5,0 -10,-4 -10,-9l0 -19c0,-5 5,-10 10,-10 5,0 9,5 9,10l0 19c0,5 -4,9 -9,9z"/>
    <path class="fil8" d="M1109 7733l-150 0c-5,0 -10,-4 -10,-9 0,-5 5,-10 10,-10l150 0c5,0 9,5 9,10 0,5 -4,9 -9,9z"/>
    <path class="fil8" d="M977 7714c-5,0 -9,-4 -9,-9l0 -431c0,-5 4,-10 9,-10 6,0 10,5 10,10l0 431c0,5 -4,9 -10,9z"/>
    <path class="fil8" d="M1052 7714c-5,0 -9,-4 -9,-9l0 -431c0,-5 4,-10 9,-10 6,0 10,5 10,10l0 431c0,5 -4,9 -10,9z"/>
    <path class="fil8" d="M1090 7714c-5,0 -9,-4 -9,-9l0 -431c0,-5 4,-10 9,-10 5,0 9,5 9,10l0 431c0,5 -4,9 -9,9z"/>
    <path class="fil8" d="M1015 7714c-5,0 -9,-4 -9,-9l0 -431c0,-5 4,-10 9,-10 5,0 9,5 9,10l0 431c0,5 -4,9 -9,9z"/>
    <path class="fil8" d="M1127 7321c-5,0 -9,-5 -9,-10 0,-5 4,-9 9,-9 16,0 29,-13 29,-28 0,-16 -13,-28 -29,-28 -15,0 -28,12 -28,28 0,5 -4,9 -9,9 -5,0 -9,-4 -9,-9 0,-26 21,-47 46,-47 26,0 47,21 47,47 0,26 -21,47 -47,47z"/>
    <path class="fil8" d="M941 7283c-6,0 -10,-4 -10,-9 0,-5 4,-10 9,-10l1 0c5,0 9,5 9,10 0,5 -4,9 -9,9z"/>
    <path class="fil8" d="M940 7321c-26,0 -47,-21 -47,-47 0,-26 21,-47 47,-47 26,0 47,21 47,47 0,5 -4,9 -10,9 -5,0 -9,-4 -9,-9 0,-16 -13,-28 -28,-28 -16,0 -28,12 -28,28 0,15 12,28 28,28 5,0 9,4 9,9 0,5 -4,10 -9,10z"/>
    <path class="fil8" d="M1127 7227l-187 0c-5,0 -9,-4 -9,-9 0,-6 4,-10 9,-10l187 0c6,0 10,4 10,10 0,5 -4,9 -10,9z"/>
    <path class="fil8" d="M800 7283c-5,0 -10,-4 -10,-9 0,-5 5,-10 10,-10l0 0c5,0 9,5 9,10 0,5 -4,9 -9,9z"/>
    <path class="fil8" d="M612 7808c-5,0 -10,-4 -10,-9l0 -38c0,-5 5,-9 10,-9 5,0 9,4 9,9l0 38c0,5 -4,9 -9,9z"/>
    <path class="fil8" d="M799 7771l-187 0c-5,0 -10,-5 -10,-10 0,-5 5,-9 10,-9l187 0c5,0 10,4 10,9 0,5 -5,10 -10,10z"/>
    <path class="fil8" d="M799 7808c-5,0 -9,-4 -9,-9l0 -38c0,-5 4,-9 9,-9 5,0 10,4 10,9l0 38c0,5 -5,9 -10,9z"/>
    <path class="fil8" d="M631 7752c-6,0 -10,-4 -10,-9l0 -19c0,-5 4,-10 10,-10 5,0 9,5 9,10l0 19c0,5 -4,9 -9,9z"/>
    <path class="fil8" d="M781 7752c-6,0 -10,-4 -10,-9l0 -19c0,-5 4,-10 10,-10 5,0 9,5 9,10l0 19c0,5 -4,9 -9,9z"/>
    <path class="fil8" d="M781 7733l-150 0c-6,0 -10,-4 -10,-9 0,-5 4,-10 10,-10l150 0c5,0 9,5 9,10 0,5 -4,9 -9,9z"/>
    <path class="fil8" d="M649 7714c-5,0 -9,-4 -9,-9l0 -431c0,-5 4,-10 9,-10 5,0 10,5 10,10l0 431c0,5 -5,9 -10,9z"/>
    <path class="fil8" d="M724 7714c-5,0 -9,-4 -9,-9l0 -431c0,-5 4,-10 9,-10 5,0 10,5 10,10l0 431c0,5 -5,9 -10,9z"/>
    <path class="fil8" d="M762 7714c-5,0 -10,-4 -10,-9l0 -431c0,-5 5,-10 10,-10 5,0 9,5 9,10l0 431c0,5 -4,9 -9,9z"/>
    <path class="fil8" d="M687 7714c-5,0 -10,-4 -10,-9l0 -431c0,-5 5,-10 10,-10 5,0 9,5 9,10l0 431c0,5 -4,9 -9,9z"/>
    <path class="fil8" d="M799 7321c-5,0 -9,-5 -9,-10 0,-5 4,-9 9,-9 16,0 28,-13 28,-28 0,-16 -12,-28 -28,-28 -15,0 -28,12 -28,28 0,5 -4,9 -9,9 -5,0 -10,-4 -10,-9 0,-26 21,-47 47,-47 26,0 47,21 47,47 0,26 -21,47 -47,47z"/>
    <path class="fil8" d="M612 7283c-5,0 -9,-4 -9,-9 0,-5 4,-10 9,-10l0 0c6,0 10,5 10,10 0,5 -4,9 -10,9z"/>
    <path class="fil8" d="M612 7321c-26,0 -47,-21 -47,-47 0,-26 21,-47 47,-47 26,0 47,21 47,47 0,5 -5,9 -10,9 -5,0 -9,-4 -9,-9 0,-16 -13,-28 -28,-28 -16,0 -28,12 -28,28 0,15 12,28 28,28 5,0 9,4 9,9 0,5 -4,10 -9,10z"/>
    <path class="fil8" d="M799 7227l-187 0c-5,0 -10,-4 -10,-9 0,-6 5,-10 10,-10l187 0c5,0 10,4 10,10 0,5 -5,9 -10,9z"/>
    <path class="fil8" d="M1184 7189l-957 0c-5,0 -9,-4 -9,-9 0,-5 4,-9 9,-9l957 0c5,0 9,4 9,9 0,5 -4,9 -9,9z"/>
    <path class="fil8" d="M227 7189c-5,0 -9,-4 -9,-9l0 -19c0,-5 4,-9 9,-9 6,0 10,4 10,9l0 19c0,5 -4,9 -10,9z"/>
    <path class="fil8" d="M1184 7189c-5,0 -10,-4 -10,-9l0 -19c0,-5 5,-9 10,-9 5,0 9,4 9,9l0 19c0,5 -4,9 -9,9z"/>
    <path class="fil8" d="M1259 7152l-1107 0c-5,0 -9,-4 -9,-9 0,-6 4,-10 9,-10l1107 0c5,0 9,4 9,10 0,5 -4,9 -9,9z"/>
    <path class="fil8" d="M152 7152c-5,0 -9,-4 -9,-9l0 -38c0,-5 4,-9 9,-9 6,0 10,4 10,9l0 38c0,5 -4,9 -10,9z"/>
    <path class="fil8" d="M1259 7152c-5,0 -10,-4 -10,-9l0 -38c0,-5 5,-9 10,-9 5,0 9,4 9,9l0 38c0,5 -4,9 -9,9z"/>
    <path class="fil8" d="M152 7114c-3,0 -6,-1 -8,-4 -2,-5 -1,-11 4,-13l553 -300c5,-3 10,-1 13,4 2,4 1,10 -4,12l-553 300c-2,1 -3,1 -5,1z"/>
    <path class="fil8" d="M1259 7114c-2,0 -3,0 -5,-1l-553 -300c-4,-2 -6,-8 -4,-12 3,-5 8,-7 13,-4l553 300c5,2 6,8 4,13 -2,3 -5,4 -8,4z"/>
    <path class="fil8" d="M1146 7114l-881 0c-5,0 -9,-4 -9,-9 0,-5 4,-9 9,-9l881 0c5,0 10,4 10,9 0,5 -5,9 -10,9z"/>
    <path class="fil8" d="M706 7077c-62,0 -113,-51 -113,-113 0,-62 51,-112 113,-112 62,0 112,50 112,112 0,62 -50,113 -112,113zm0 -206c-52,0 -94,42 -94,93 0,52 42,94 94,94 51,0 93,-42 93,-94 0,-51 -42,-93 -93,-93z"/>
    <path class="fil8" d="M706 7021c-6,0 -10,-5 -10,-10l0 -93c0,-6 4,-10 10,-10 5,0 9,4 9,10l0 93c0,5 -4,10 -9,10z"/>
    <path class="fil8" d="M752 6946l-93 0c-5,0 -10,-5 -10,-10 0,-5 5,-9 10,-9l93 0c6,0 10,4 10,9 0,5 -4,10 -10,10z"/>
    <path class="fil8" d="M752 6964c-5,0 -9,-4 -9,-9l0 -19c0,-5 4,-9 9,-9 6,0 10,4 10,9l0 19c0,5 -4,9 -10,9z"/>
    <path class="fil8" d="M762 6983l-19 0c-5,0 -9,-4 -9,-9 0,-5 4,-10 9,-10l19 0c5,0 9,5 9,10 0,5 -4,9 -9,9z"/>
    <path class="fil8" d="M659 6964c-5,0 -10,-4 -10,-9l0 -19c0,-5 5,-9 10,-9 5,0 9,4 9,9l0 19c0,5 -4,9 -9,9z"/>
    <path class="fil8" d="M668 6983l-19 0c-5,0 -9,-4 -9,-9 0,-5 4,-10 9,-10l19 0c5,0 9,5 9,10 0,5 -4,9 -9,9z"/>
    <path class="fil8" d="M734 7021l-57 0c-5,0 -9,-5 -9,-10 0,-5 4,-9 9,-9l57 0c5,0 9,4 9,9 0,5 -4,10 -9,10z"/>
   </g>
   <g>
    <rect class="fil14" x="115" y="5362" width="1181" height="787"/>
    <rect class="fil9" x="183" y="5418" width="1069" height="675"/>
    <polygon class="fil18" points="1109,5831 1034,5831 1034,5981 1071,5943 1109,5981 "/>
    <rect class="fil10" x="265" y="5512" width="881.242" height="56.2482"/>
    <path class="fil17" d="M1034 5858c11,7 23,10 37,10 14,0 27,-3 38,-10l0 -27 -75 0 0 27z"/>
    <path class="fil19" d="M1034 5858l0 123 18 -19 0 -96c-6,-2 -12,-5 -18,-8z"/>
    <path class="fil20" d="M1109 5858l0 123 -19 -19 0 -96c7,-2 13,-5 19,-8z"/>
    <circle class="fil0" cx="1071" cy="5775" r="75"/>
    <path class="fil19" d="M1015 5775c0,-38 29,-70 66,-74 -4,-1 -7,-1 -10,-1 -41,0 -75,33 -75,75 0,41 34,75 75,75 3,0 6,-1 10,-1 -37,-5 -66,-36 -66,-74z"/>
    <path class="fil20" d="M1127 5775c0,38 -28,69 -65,74 3,0 6,1 9,1 42,0 75,-34 75,-75 0,-42 -33,-75 -75,-75 -3,0 -6,0 -9,1 37,4 65,36 65,74z"/>
    <circle class="fil10" cx="302" cy="5981" r="38"/>
    <circle class="fil10" cx="415" cy="5981" r="38"/>
    <path class="fil16" d="M1090 5775c0,10 -8,18 -19,18 -10,0 -19,-8 -19,-18 0,-11 9,-19 19,-19 11,0 19,8 19,19z"/>
    <circle class="fil21" cx="706" cy="5184" r="28"/>
    <rect class="fil22" x="115" y="5362" width="18.7509" height="787.485"/>
    <rect class="fil23" x="1277" y="5362" width="18.7481" height="787.485"/>
    <path class="fil8" d="M303 5990c-5,0 -9,-4 -9,-9 0,-5 4,-9 9,-9l0 0c5,0 9,4 9,9 0,5 -4,9 -9,9z"/>
    <path class="fil8" d="M1296 6159l-1181 0c-5,0 -9,-4 -9,-9l0 -788c0,-5 4,-9 9,-9l1181 0c5,0 10,4 10,9l0 788c0,5 -5,9 -10,9zm-1172 -19l1163 0 0 -768 -1163 0 0 768z"/>
    <path class="fil8" d="M1240 6103l-1069 0c-5,0 -9,-4 -9,-10l0 -675c0,-5 4,-9 9,-9l1069 0c5,0 9,4 9,9l0 675c0,6 -4,10 -9,10zm-1059 -19l1050 0 0 -656 -1050 0 0 656z"/>
    <path class="fil8" d="M1240 5428c-2,0 -5,-1 -7,-3 -3,-4 -3,-9 0,-13l57 -56c3,-4 9,-4 13,0 3,3 3,9 0,13l-56 56c-2,2 -5,3 -7,3z"/>
    <path class="fil8" d="M1296 6159c-2,0 -5,-1 -6,-3l-57 -56c-3,-4 -3,-9 0,-13 4,-4 10,-4 14,0l56 56c3,4 3,10 0,13 -2,2 -4,3 -7,3z"/>
    <path class="fil8" d="M115 6159c-2,0 -5,-1 -7,-3 -3,-3 -3,-9 0,-13l57 -56c3,-4 9,-4 13,0 3,4 3,9 0,13l-56 56c-2,2 -5,3 -7,3z"/>
    <path class="fil8" d="M171 5428c-2,0 -5,-1 -6,-3l-57 -56c-3,-4 -3,-10 0,-13 4,-4 10,-4 14,0l56 56c3,4 3,9 0,13 -2,2 -4,3 -7,3z"/>
    <path class="fil8" d="M1146 5578l-881 0c-5,0 -9,-4 -9,-10l0 -56c0,-5 4,-9 9,-9l881 0c5,0 10,4 10,9l0 56c0,6 -5,10 -10,10zm-872 -19l863 0 0 -37 -863 0 0 37z"/>
    <path class="fil8" d="M884 5709l-619 0c-5,0 -9,-4 -9,-9 0,-5 4,-10 9,-10l619 0c5,0 9,5 9,10 0,5 -4,9 -9,9z"/>
    <path class="fil8" d="M884 5784l-619 0c-5,0 -9,-4 -9,-9 0,-5 4,-10 9,-10l619 0c5,0 9,5 9,10 0,5 -4,9 -9,9z"/>
    <path class="fil8" d="M565 5859l-300 0c-5,0 -9,-4 -9,-9 0,-5 4,-10 9,-10l300 0c5,0 9,5 9,10 0,5 -4,9 -9,9z"/>
    <path class="fil8" d="M884 5990l-132 0c-5,0 -9,-4 -9,-9 0,-5 4,-9 9,-9l132 0c5,0 9,4 9,9 0,5 -4,9 -9,9z"/>
    <path class="fil8" d="M1071 5859c-46,0 -84,-38 -84,-84 0,-47 38,-85 84,-85 47,0 85,38 85,85 0,46 -38,84 -85,84zm0 -150c-36,0 -65,30 -65,66 0,36 29,65 65,65 36,0 66,-29 66,-65 0,-36 -30,-66 -66,-66z"/>
    <path class="fil8" d="M1071 5803c-15,0 -28,-13 -28,-28 0,-16 13,-28 28,-28 16,0 28,12 28,28 0,15 -12,28 -28,28zm0 -38c-5,0 -9,5 -9,10 0,5 4,9 9,9 5,0 10,-4 10,-9 0,-5 -5,-10 -10,-10z"/>
    <path class="fil8" d="M1034 5990c-5,0 -10,-4 -10,-9l0 -113c0,-5 5,-9 10,-9 5,0 9,4 9,9l0 113c0,5 -4,9 -9,9z"/>
    <path class="fil8" d="M1109 5990c-5,0 -10,-4 -10,-9l0 -113c0,-5 5,-9 10,-9 5,0 9,4 9,9l0 113c0,5 -4,9 -9,9z"/>
    <path class="fil8" d="M1034 5990c-3,0 -5,-1 -7,-2 -4,-4 -4,-10 0,-14l38 -37c3,-4 9,-4 13,0 3,4 3,9 0,13l-38 38c-2,1 -4,2 -6,2z"/>
    <path class="fil8" d="M1109 5990c-3,0 -5,-1 -7,-2l-37 -38c-4,-4 -4,-9 0,-13 3,-4 9,-4 13,0l37 37c4,4 4,10 0,14 -2,1 -4,2 -6,2z"/>
    <path class="fil8" d="M302 6028c-25,0 -46,-21 -46,-47 0,-26 21,-47 46,-47 26,0 47,21 47,47 0,26 -21,47 -47,47zm0 -75c-15,0 -28,12 -28,28 0,15 13,28 28,28 16,0 29,-13 29,-28 0,-16 -13,-28 -29,-28z"/>
    <path class="fil8" d="M416 5990c-6,0 -10,-4 -10,-9 0,-5 4,-9 9,-9l1 0c5,0 9,4 9,9 0,5 -4,9 -9,9z"/>
    <path class="fil8" d="M415 6028c-26,0 -47,-21 -47,-47 0,-26 21,-47 47,-47 26,0 47,21 47,47 0,26 -21,47 -47,47zm0 -75c-16,0 -28,12 -28,28 0,15 12,28 28,28 15,0 28,-13 28,-28 0,-16 -13,-28 -28,-28z"/>
    <path class="fil8" d="M706 5222c-21,0 -38,-17 -38,-38 0,-21 17,-37 38,-37 20,0 37,16 37,37 0,21 -17,38 -37,38zm0 -57c-11,0 -19,9 -19,19 0,10 8,19 19,19 10,0 18,-9 18,-19 0,-10 -8,-19 -18,-19z"/>
    <path class="fil8" d="M209 5334c-4,0 -8,-2 -9,-7 -2,-4 1,-10 6,-11l431 -131c5,-2 10,1 12,6 1,5 -1,10 -6,11l-432 132c0,0 -1,0 -2,0z"/>
    <path class="fil8" d="M1202 5334c0,0 -1,0 -2,0l-432 -132c-4,-1 -7,-6 -6,-11 2,-5 7,-8 12,-6l431 131c5,1 8,7 6,11 -1,5 -5,7 -9,7z"/>
   </g>
   <g>
    <path class="fil10" d="M2689 5488c-10,-11 -32,-35 -43,-46 -76,-78 -171,-176 -171,-286 0,-31 25,-56 56,-56 30,0 53,22 56,50 0,2 1,4 1,6l37 0c0,-3 0,-5 0,-8 -4,-48 -45,-86 -94,-86 -52,0 -93,42 -93,94 0,186 223,325 272,421l22 0 -43 -89z"/>
    <path class="fil16" d="M2710 5577l9 29c-1,-9 -4,-19 -9,-29z"/>
    <path class="fil10" d="M3274 5488c10,-11 32,-35 43,-46 76,-78 171,-176 171,-286 0,-31 -26,-56 -57,-56 -29,0 -53,22 -56,50 0,2 0,4 0,6l-37 0c0,-3 0,-5 0,-8 4,-48 44,-86 93,-86 52,0 94,42 94,94 0,186 -223,325 -272,421l-22 0 43 -89z"/>
    <path class="fil16" d="M3253 5577l-9 29c1,-9 4,-19 9,-29z"/>
    <polygon class="fil14" points="2775,6168 3188,6168 3225,6168 3225,6243 2738,6243 2738,6168 "/>
    <polygon class="fil10" points="2805,5925 3154,5925 3186,5925 3186,6168 2774,6168 2774,5925 "/>
    <path class="fil22" d="M2869 6000l225 0c0,10 8,18 19,18l0 75c-11,0 -19,9 -19,19l-225 0c0,-10 -9,-19 -19,-19l0 -75c10,0 19,-8 19,-18z"/>
    <path class="fil10" d="M2981 5756l1 0c10,-3 21,-6 31,-9l6 17c0,0 0,86 75,142l0 19 -225 0 0 -19c75,-56 75,-142 75,-142l5 -17c11,3 21,6 32,9z"/>
    <polygon class="fil2" points="3117,5351 3049,5417 3066,5510 2982,5466 2898,5510 2914,5417 2846,5351 2940,5337 2982,5252 3024,5337 "/>
    <path class="fil10" d="M2644 5100l675 0c0,14 0,33 1,56 1,100 -3,272 -82,409 -46,79 -116,147 -225,182 -10,3 -21,6 -31,9l-1 0c-11,-3 -21,-6 -32,-9 -149,-49 -226,-158 -266,-275 -39,-116 -41,-238 -40,-316 0,-23 1,-42 1,-56l0 0 0 0zm405 317l68 -66 -93 -14 -42 -85 -42 85 -94 14 68 66 -16 93 84 -44 84 44 -17 -93z"/>
    <path class="fil9" d="M3006 5747c-150,-49 -227,-158 -267,-275 -38,-116 -41,-238 -40,-316 1,-23 1,-42 1,-56l-56 0 0 0c0,14 -1,33 -1,56 -1,78 1,200 40,316 40,117 117,226 266,275 11,3 21,6 32,9l1 0c9,-3 18,-5 27,-8 -1,-1 -2,-1 -3,-1z"/>
    <path class="fil14" d="M2981 5738c134,-52 205,-156 242,-266 39,-116 41,-238 41,-316 -1,-23 -1,-42 -1,-56l55 0 1 0c0,14 0,33 1,56 1,78 -2,200 -40,316 -40,117 -117,226 -267,275 -1,0 -2,1 -3,1l-29 -10z"/>
    <path class="fil15" d="M2982 5756l-1 0c-11,-3 -21,-6 -32,-9l-5 17c2,0 4,1 5,2 11,3 21,6 32,9l1 0c10,-3 21,-6 31,-9 2,-1 4,-2 6,-3l-6 -16c-10,3 -21,6 -31,9z"/>
    <path class="fil9" d="M2949 5766c-1,-1 -3,-2 -5,-2l0 0c0,0 0,86 -75,142l19 0c63,-48 73,-117 74,-137 -4,-1 -8,-2 -13,-3z"/>
    <path class="fil15" d="M3013 5766c2,-1 4,-2 6,-2l0 0c0,0 0,86 75,142l-19 0c-64,-48 -73,-117 -75,-137 5,-1 9,-2 13,-3z"/>
    <rect class="fil15" x="2738" y="6168" width="18.7496" height="74.9977"/>
    <rect class="fil16" x="2775" y="5925" width="18.5667" height="243.748"/>
    <rect class="fil14" x="3169" y="5925" width="18.5667" height="243.748"/>
    <path class="fil8" d="M2982 5765c-5,0 -8,-2 -10,-7 -1,-5 2,-10 7,-11 11,-3 21,-6 31,-9 96,-31 170,-91 220,-178 75,-130 82,-292 80,-404l0 -24c0,-12 -1,-23 -1,-32 0,-5 5,-10 10,-10 5,0 9,5 9,10 0,9 0,19 1,32l0 24c1,114 -6,280 -83,414 -52,91 -130,153 -230,186 -10,3 -21,6 -32,9 -1,0 -2,0 -2,0z"/>
    <path class="fil8" d="M2982 5765c-1,0 -2,0 -3,0 -11,-3 -22,-6 -32,-9 -133,-43 -224,-138 -273,-281 -38,-115 -41,-237 -40,-319l0 -24c0,-13 1,-23 1,-32 0,-5 4,-10 9,-10 5,0 9,5 9,10 0,9 0,20 0,33l-1 24c-1,80 3,200 40,312 46,137 134,228 260,269 10,3 21,6 31,9 5,1 8,5 8,9 0,5 -4,9 -9,9z"/>
    <path class="fil8" d="M3319 5109l-675 0c-5,0 -9,-4 -9,-9 0,-5 4,-10 9,-10l675 0c5,0 9,5 9,10 0,5 -4,9 -9,9z"/>
    <path class="fil8" d="M3244 5615c0,0 -1,0 -1,0 -5,0 -9,-5 -9,-10 1,-11 5,-23 13,-37 18,-31 51,-66 90,-106 80,-82 179,-185 179,-306 0,-5 4,-9 9,-9 5,0 9,4 9,9 0,129 -101,234 -183,319 -38,39 -71,73 -88,102 -6,12 -9,21 -10,30 0,5 -4,8 -9,8z"/>
    <path class="fil8" d="M3286 5484c-3,0 -5,-1 -7,-2 -4,-4 -4,-10 0,-14 10,-10 20,-21 31,-32 75,-78 168,-174 168,-280 0,-5 4,-9 10,-9 5,0 9,4 9,9 0,113 -96,213 -173,292 -11,12 -22,23 -32,33 -1,2 -4,3 -6,3z"/>
    <path class="fil8" d="M3338 5165c-6,0 -10,-4 -10,-9 0,-57 46,-103 103,-103 6,0 10,4 10,9 0,5 -4,10 -10,10 -46,0 -84,37 -84,84 0,5 -4,9 -9,9z"/>
    <path class="fil8" d="M3525 5165c-5,0 -9,-4 -9,-9 0,-47 -38,-84 -85,-84 -5,0 -9,-5 -9,-10 0,-5 4,-9 9,-9 57,0 103,46 103,103 0,5 -4,9 -9,9z"/>
    <path class="fil8" d="M3375 5165c-5,0 -9,-4 -9,-9 0,-36 29,-66 65,-66 6,0 10,5 10,10 0,5 -4,9 -10,9 -26,0 -47,21 -47,47 0,5 -4,9 -9,9z"/>
    <path class="fil8" d="M3488 5165c-6,0 -10,-4 -10,-9 0,-26 -21,-47 -47,-47 -5,0 -9,-4 -9,-9 0,-5 4,-10 9,-10 37,0 66,30 66,66 0,5 -4,9 -9,9z"/>
    <path class="fil8" d="M3286 5657c-29,0 -52,-23 -52,-51 0,-6 4,-10 10,-10 5,0 9,4 9,10 0,18 15,32 33,32 13,0 24,-11 24,-24 0,-10 -8,-17 -18,-17 -6,0 -12,5 -12,12 0,5 -4,9 -9,9 -5,0 -10,-4 -10,-9 0,-17 14,-31 31,-31 20,0 36,16 36,36 0,24 -19,43 -42,43z"/>
    <path class="fil8" d="M2719 5615c-5,0 -9,-3 -10,-8 -2,-34 -46,-80 -97,-132 -82,-85 -184,-190 -184,-319 0,-5 4,-9 10,-9 5,0 9,4 9,9 0,121 99,224 179,306 55,57 99,102 102,143 1,5 -3,10 -8,10 -1,0 -1,0 -1,0z"/>
    <path class="fil8" d="M2677 5484c-2,0 -5,-1 -7,-3 -10,-10 -20,-21 -31,-32 -77,-80 -173,-180 -173,-293 0,-5 4,-9 9,-9 5,0 9,4 9,9 0,106 94,202 168,279 11,12 22,23 32,33 3,4 3,10 -1,14 -1,1 -4,2 -6,2z"/>
    <path class="fil8" d="M2625 5165c-5,0 -9,-4 -9,-9 0,-2 0,-5 -1,-7 -3,-44 -40,-77 -84,-77 -5,0 -9,-5 -9,-10 0,-5 4,-9 9,-9 54,0 99,41 103,94 0,3 0,6 0,9 0,5 -4,9 -9,9z"/>
    <path class="fil8" d="M2438 5165c-6,0 -10,-4 -10,-9 0,-57 46,-103 103,-103 6,0 10,4 10,9 0,5 -4,10 -10,10 -46,0 -84,37 -84,84 0,5 -4,9 -9,9z"/>
    <path class="fil8" d="M2588 5165c-6,0 -10,-4 -10,-9 0,-2 0,-3 0,-5 -2,-24 -23,-42 -47,-42 -5,0 -9,-4 -9,-9 0,-5 4,-10 9,-10 34,0 62,26 66,59 0,2 0,5 0,7 0,5 -4,9 -9,9z"/>
    <path class="fil8" d="M2475 5165c-5,0 -9,-4 -9,-9 0,-36 29,-66 65,-66 6,0 10,5 10,10 0,5 -4,9 -10,9 -26,0 -47,21 -47,47 0,5 -4,9 -9,9z"/>
    <path class="fil8" d="M2677 5657c-24,0 -43,-19 -43,-43 0,-20 17,-36 36,-36 17,0 31,14 31,31 0,5 -4,9 -9,9 -5,0 -10,-4 -10,-9 0,-7 -5,-12 -12,-12 -9,0 -17,7 -17,17 0,13 11,24 24,24 18,0 33,-14 33,-32 0,-6 4,-10 9,-10 5,0 9,4 9,10 0,28 -23,51 -51,51z"/>
    <path class="fil8" d="M3094 5915c-2,0 -4,0 -6,-2 -78,-58 -79,-146 -79,-149 0,-5 5,-10 10,-10 0,0 0,0 0,0 5,0 9,4 9,10 0,0 1,82 71,134 5,4 5,9 2,14 -2,2 -4,3 -7,3z"/>
    <path class="fil8" d="M2869 5915c-3,0 -6,-1 -8,-3 -3,-5 -2,-10 2,-14 71,-52 71,-134 71,-134 0,-6 5,-10 10,-10 5,0 9,4 9,10 0,3 -1,91 -79,149 -1,2 -3,2 -5,2z"/>
    <path class="fil8" d="M3188 6159c-6,0 -10,-4 -10,-9l0 -216 -394 0 0 216c0,5 -4,9 -9,9 -5,0 -9,-4 -9,-9l0 -225c0,-5 4,-10 9,-10l413 0c5,0 9,5 9,10l0 225c0,5 -4,9 -9,9z"/>
    <path class="fil8" d="M3225 6253l-487 0c-6,0 -10,-4 -10,-10l0 -75c0,-5 4,-9 10,-9l487 0c5,0 9,4 9,9l0 75c0,6 -4,10 -9,10zm-478 -19l469 0 0 -56 -469 0 0 56z"/>
    <path class="fil10" d="M3188 6215l-413 0c-5,0 -9,-4 -9,-9 0,-5 4,-9 9,-9l413 0c5,0 9,4 9,9 0,5 -4,9 -9,9z"/>
    <path class="fil8" d="M3066 5519c-2,0 -3,0 -5,-1l-79 -41 -80 41c-3,2 -7,2 -10,0 -2,-3 -4,-6 -3,-10l15 -88 -65 -63c-2,-2 -3,-6 -2,-9 1,-4 4,-6 8,-7l88 -13 40 -80c2,-3 5,-5 9,-5l0 0c3,0 7,2 8,5l40 80 89 13c3,1 6,3 7,7 1,3 0,7 -2,9l-65 63 16 88c0,4 -1,7 -4,10 -2,1 -4,1 -5,1zm-200 -162l54 53c3,2 4,5 3,8l-13 75 67 -35c3,-2 6,-2 9,0l67 35 -13 -75c0,-3 1,-6 3,-8l54 -53 -75 -11c-3,0 -6,-2 -7,-5l-33 -68 -34 68c-1,3 -4,5 -7,5l-75 11z"/>
    <path class="fil0" d="M3028 6075c0,5 -4,9 -9,9l-75 0c-5,0 -10,-4 -10,-9 0,-5 5,-10 10,-10l75 0c5,0 9,5 9,10zm-169 -49l0 60c8,3 15,9 18,17l209 0c3,-8 9,-14 17,-17l0 -60c-8,-3 -14,-9 -17,-17l-209 0c-3,8 -10,14 -18,17zm197 21l-150 0c-5,0 -9,-5 -9,-10 0,-5 4,-9 9,-9l150 0c6,0 10,4 10,9 0,5 -4,10 -10,10z"/>
    <path class="fil8" d="M3094 6122l-225 0c-5,0 -10,-5 -10,-10 0,-5 -4,-9 -9,-9 -5,0 -9,-4 -9,-10l0 -75c0,-5 4,-9 9,-9 5,0 9,-4 9,-9 0,-5 5,-10 10,-10l225 0c5,0 9,5 9,10 0,5 4,9 10,9 5,0 9,4 9,9l0 75c0,6 -4,10 -9,10 -6,0 -10,4 -10,9 0,5 -4,10 -9,10zm-217 -19l209 0c3,-8 9,-14 17,-17l0 -60c-8,-3 -14,-9 -17,-17l-209 0c-3,8 -10,14 -18,17l0 60c8,3 15,9 18,17z"/>
    <path class="fil8" d="M3056 6047l-150 0c-5,0 -9,-5 -9,-10 0,-5 4,-9 9,-9l150 0c6,0 10,4 10,9 0,5 -4,10 -10,10z"/>
    <path class="fil8" d="M3019 6084l-75 0c-5,0 -10,-4 -10,-9 0,-5 5,-10 10,-10l75 0c5,0 9,5 9,10 0,5 -4,9 -9,9z"/>
   </g>
   <g>
    <path class="fil22" d="M5452 5888l-17 18 -244 244 -243 -244 -53 -8c36,-16 70,-33 90,-48l19 -19 112 112 75 -37 75 37 109 -108 15 15c13,11 37,26 62,38z"/>
    <path class="fil10" d="M5594 5947c-23,-9 -58,-22 -93,-37 -18,-8 -32,-14 -49,-22l-17 18 -244 244 -243 -244 -53 -8c-46,20 -96,38 -125,49 -69,26 -103,52 -103,121 0,69 0,175 0,175l524 0 507 0c0,0 0,-106 0,-175 0,-69 -35,-95 -104,-121z"/>
    <path class="fil24" d="M5415 5926l0 0 20 -20 17 -18c-25,-12 -49,-27 -62,-38l-15 -15 -37 37 15 15c12,12 37,26 62,39z"/>
    <path class="fil14" d="M5594 5947c-23,-9 -58,-22 -93,-37 -18,-8 -32,-14 -49,-22l-17 18 -20 20 38 17 0 0c3,2 7,3 10,4 35,15 70,29 94,38 69,25 103,51 103,120 0,43 0,101 0,138l38 0c0,0 0,-106 0,-175 0,-69 -35,-95 -104,-121z"/>
    <path class="fil16" d="M4807 5985c28,-11 75,-28 119,-47l37 -17c0,0 0,0 0,0l-15 -15 -53 -8c-46,20 -96,38 -125,49 -69,26 -103,52 -103,121 0,69 0,175 0,175l37 0c0,-37 0,-95 0,-138 0,-69 34,-95 103,-120z"/>
    <path class="fil9" d="M4971 5859c-3,3 -7,5 -11,7 -1,0 -1,1 -1,1 -5,3 -10,5 -16,8 0,0 -1,1 -1,1 -15,7 -30,14 -47,22l53 8 15 15c24,-11 45,-23 60,-33l19 -19 -38 -38 -19 19c-3,3 -7,5 -11,7 -1,1 -2,2 -3,2z"/>
    <polygon class="fil9" points="5191,5868 5004,5760 5004,5831 5116,5943 5191,5906 5266,5943 5379,5831 5379,5760 "/>
    <path class="fil22" d="M5491 5491l0 -54 -599 0 0 54c0,197 185,377 300,377 114,0 300,-180 300,-377l-1 0 0 0z"/>
    <path class="fil15" d="M4892 5456c0,0 131,19 299,19 169,0 300,-19 300,-19l0 -19 -599 0 0 19z"/>
    <path class="fil9" d="M4929 5491l0 -30c-24,-3 -37,-5 -37,-5l0 35c0,197 185,377 300,377 6,0 12,0 18,-1 -114,-18 -281,-190 -281,-376z"/>
    <path class="fil25" d="M5454 5491l0 -30c24,-3 37,-5 37,-5l0 35c0,197 -185,377 -300,377 -6,0 -12,0 -18,-1 114,-18 281,-190 281,-376z"/>
    <polygon class="fil10" points="5191,5062 4667,5175 5191,5287 5716,5175 "/>
    <path class="fil26" d="M5192 5972c-5,0 -9,-5 -9,-10 0,-5 4,-9 9,-9l0 0c5,0 9,4 9,9 0,5 -4,10 -9,10z"/>
    <path class="fil26" d="M5192 6028c-5,0 -9,-4 -9,-10 0,-5 4,-9 9,-9l0 0c5,0 9,4 9,9 0,6 -4,10 -9,10z"/>
    <path class="fil27" d="M5491 5223l0 214c0,0 -131,19 -300,19 -168,0 -300,-19 -300,-19l0 -214 300 64 300 -64z"/>
    <path class="fil10" d="M5491 5223l0 214c0,0 -131,19 -300,19 -168,0 -300,-19 -300,-19l0 -214 300 64 300 -64z"/>
    <polygon class="fil14" points="5191,5343 5491,5279 5491,5223 5191,5287 4891,5223 4891,5279 "/>
    <path class="fil16" d="M4929 5287l-38 -8 0 158c0,0 132,19 300,19 7,0 13,0 19,0 -159,-1 -281,-19 -281,-19l0 -150 0 0z"/>
    <path class="fil14" d="M5454 5287l37 -8 0 158c0,0 -131,19 -300,19 -6,0 -12,0 -18,0 159,-1 281,-19 281,-19l0 -150z"/>
    <path class="fil28" d="M5229 5175c0,10 -17,18 -37,18 -21,0 -38,-8 -38,-18 0,-11 17,-19 38,-19 20,0 37,8 37,19z"/>
    <polygon class="fil2" points="5660,5381 5660,5362 5623,5362 5623,5381 5604,5456 5679,5456 "/>
    <rect class="fil2" x="5623" y="5325" width="37.4991" height="37.5002"/>
    <polygon class="fil9" points="5452,5888 5191,6150 4926,5884 4887,5901 5191,6206 5491,5906 "/>
    <path class="fil8" d="M5698 6253l-1031 0c-6,0 -10,-4 -10,-10l0 -175c0,-75 39,-103 110,-130l7 -2c30,-12 75,-29 117,-47 43,-19 72,-34 89,-46 4,-4 10,-3 13,1 3,5 2,11 -2,14 -18,13 -48,29 -92,48 -43,19 -88,36 -118,47l-8 3c-66,25 -97,48 -97,112l0 166 1012 0 0 -166c0,-64 -31,-87 -97,-112 -23,-9 -58,-22 -94,-37 -19,-9 -36,-17 -52,-24 -29,-14 -49,-27 -61,-38 -4,-4 -4,-10 -1,-14 4,-3 10,-4 14,0 10,10 29,22 57,35 15,8 32,15 50,23 36,15 70,29 94,37 71,27 109,55 109,130l0 175c0,6 -4,10 -9,10z"/>
    <path class="fil8" d="M5191 5878c-116,0 -309,-181 -309,-387 0,-5 4,-9 10,-9 5,0 9,4 9,9 0,190 181,368 290,368 110,0 291,-178 291,-368 0,-5 4,-9 9,-9 6,0 10,4 10,9 0,206 -193,387 -310,387z"/>
    <path class="fil8" d="M4891 5447c-5,0 -9,-5 -9,-10l0 -214c0,-5 4,-9 9,-9 6,0 10,4 10,9l0 214c0,5 -4,10 -10,10z"/>
    <path class="fil8" d="M5491 5447c-5,0 -9,-5 -9,-10l0 -214c0,-5 4,-9 9,-9 6,0 10,4 10,9l0 214c0,5 -4,10 -10,10z"/>
    <path class="fil8" d="M5191 5465c-167,0 -300,-18 -301,-18 -5,-1 -9,-6 -8,-11 1,-5 6,-9 11,-8 1,0 132,19 298,19 167,0 298,-19 299,-19 5,-1 10,3 11,8 1,5 -3,10 -8,11 -2,0 -134,18 -302,18z"/>
    <path class="fil8" d="M5191 5297c0,0 -1,0 -1,-1l-525 -112c-5,-1 -8,-5 -8,-9 0,-5 3,-8 8,-9l525 -113c1,0 2,0 3,0l413 88c5,1 8,6 7,12 -1,5 -6,8 -11,7l-411 -88 -480 103 480 103 411 -88c5,-1 10,2 11,7 1,5 -2,10 -7,11l-413 88c0,1 -1,1 -2,1z"/>
    <path class="fil8" d="M5191 5203c-26,0 -46,-12 -46,-28 0,-16 20,-28 46,-28 27,0 47,12 47,28 0,16 -20,28 -47,28zm0 -38c-19,0 -28,8 -28,10 0,2 9,9 28,9 19,0 29,-7 29,-9 0,-3 -10,-10 -29,-10z"/>
    <path class="fil8" d="M5641 5184l-376 0c-5,0 -9,-4 -9,-9 0,-5 4,-10 9,-10l376 0c6,0 10,5 10,10 0,5 -4,9 -10,9z"/>
    <path class="fil8" d="M5641 5315c-5,0 -9,-4 -9,-9l0 -131c0,-5 4,-10 9,-10 6,0 10,5 10,10l0 131c0,5 -4,9 -10,9z"/>
    <path class="fil8" d="M5660 5334l-37 0c-5,0 -10,-4 -10,-9 0,-5 5,-10 10,-10l37 0c5,0 10,5 10,10 0,5 -5,9 -10,9z"/>
    <path class="fil8" d="M5660 5372c-5,0 -9,-5 -9,-10l0 -37c0,-5 4,-10 9,-10 5,0 10,5 10,10l0 37c0,5 -5,10 -10,10z"/>
    <path class="fil8" d="M5660 5372l-37 0c-5,0 -10,-5 -10,-10 0,-5 5,-9 10,-9l37 0c5,0 10,4 10,9 0,5 -5,10 -10,10z"/>
    <path class="fil8" d="M5623 5372c-5,0 -10,-5 -10,-10l0 -35c0,-6 5,-10 10,-10 5,0 9,4 9,10l0 35c0,5 -4,10 -9,10z"/>
    <path class="fil8" d="M5604 5465c-1,0 -2,0 -2,0 -5,-1 -8,-6 -7,-11l19 -75c1,-5 6,-8 11,-7 5,1 8,6 7,11l-19 75c-1,5 -5,7 -9,7z"/>
    <path class="fil8" d="M5679 5465l-75 0c-5,0 -9,-4 -9,-9 0,-5 4,-9 9,-9l75 0c5,0 9,4 9,9 0,5 -4,9 -9,9z"/>
    <path class="fil8" d="M5679 5465c-4,0 -8,-2 -9,-7l-19 -75c-1,-5 2,-10 7,-11 5,-1 10,2 11,7l19 75c1,5 -2,10 -7,11 0,0 -1,0 -2,0z"/>
    <path class="fil8" d="M5491 5501c-5,0 -9,-4 -9,-10l0 -16c0,-5 4,-10 9,-10 6,0 10,5 10,10l0 16c0,6 -4,10 -10,10z"/>
    <path class="fil8" d="M4891 5501c-5,0 -9,-4 -9,-10l0 -16c0,-5 4,-10 9,-10 6,0 10,5 10,10l0 16c0,6 -4,10 -10,10z"/>
    <path class="fil8" d="M5117 5953c-4,0 -7,-2 -9,-5 -2,-5 0,-11 4,-13l75 -37c5,-3 11,-1 13,4 2,4 0,10 -4,12l-75 38c-2,1 -3,1 -4,1z"/>
    <path class="fil8" d="M5116 5953c-2,0 -4,-1 -6,-3l-112 -112c-4,-4 -4,-10 -1,-14 4,-3 10,-3 14,0l112 113c4,4 4,9 0,13 -2,2 -4,3 -7,3z"/>
    <path class="fil8" d="M5004 5840c-5,0 -9,-4 -9,-9l0 -38c0,-5 4,-9 9,-9 5,0 9,4 9,9l0 38c0,5 -4,9 -9,9z"/>
    <path class="fil8" d="M5266 5953c-1,0 -2,0 -4,-1l-75 -38c-4,-2 -6,-8 -4,-12 2,-5 8,-7 13,-4l75 37c4,2 6,8 4,13 -2,3 -5,5 -9,5z"/>
    <path class="fil8" d="M5266 5953c-2,0 -4,-1 -6,-3 -4,-4 -4,-9 0,-13l112 -113c4,-3 10,-3 14,0 3,4 3,10 0,14l-113 112c-2,2 -4,3 -7,3z"/>
    <path class="fil8" d="M5379 5840c-5,0 -9,-4 -9,-9l0 -38c0,-5 4,-9 9,-9 5,0 9,4 9,9l0 38c0,5 -4,9 -9,9z"/>
    <polygon class="fil0" points="4887,5901 5191,6206 5491,5906 5452,5888 5191,6150 4926,5884 "/>
    <path class="fil8" d="M5191 6159c-2,0 -4,-1 -6,-3l-244 -243c-4,-4 -4,-10 0,-14 4,-3 10,-3 13,0l244 244c4,4 4,10 0,13 -2,2 -4,3 -7,3z"/>
    <path class="fil8" d="M5191 6159c-2,0 -4,-1 -6,-3 -4,-3 -4,-9 0,-13l244 -244c3,-3 9,-3 13,0 4,4 4,10 0,14l-244 243c-2,2 -4,3 -7,3z"/>
    <path class="fil8" d="M5191 6215c-2,0 -4,-1 -6,-2l-281 -282c-4,-3 -4,-9 0,-13 3,-4 9,-4 13,0l281 281c4,4 4,10 0,14 -2,1 -4,2 -7,2z"/>
    <path class="fil8" d="M5191 6215c-2,0 -4,-1 -6,-2 -4,-4 -4,-10 0,-14l281 -281c4,-4 10,-4 13,0 4,4 4,10 0,13l-281 282c-2,1 -4,2 -7,2z"/>
   </g>
   <g>
    <path class="fil9" d="M3572 7564l0 76c0,31 -25,56 -56,56l-535 0 0 -38c16,0 28,-13 28,-28 0,-16 -12,-28 -28,-28l0 -38 591 0 0 0z"/>
    <path class="fil25" d="M2981 7602c16,0 28,12 28,28 0,15 -12,28 -28,28 -15,0 -28,-13 -28,-28 0,-16 13,-28 28,-28z"/>
    <path class="fil14" d="M3572 7640l0 37c0,31 -25,56 -56,56 -14,0 -200,0 -413,0 -80,0 -163,0 -243,0 -214,0 -400,0 -413,0 -32,0 -56,-25 -56,-56l0 -37c0,31 25,56 56,56l534 0 535 0c31,0 56,-25 56,-56z"/>
    <path class="fil10" d="M3103 7733l38 169 -319 0 38 -169c80,0 163,0 243,0z"/>
    <path class="fil9" d="M2410 7682c-12,-11 -19,-26 -19,-42l0 37c0,31 24,56 56,56 2,0 9,0 19,0 -30,0 -54,-22 -56,-51z"/>
    <path class="fil15" d="M3553 7682c-3,29 -26,51 -56,51 10,0 17,0 19,0 31,0 56,-25 56,-56l0 -37c0,16 -8,31 -19,42z"/>
    <path class="fil9" d="M2981 7658l0 38 -534 0c-31,0 -56,-25 -56,-56l0 -1 0 -75 590 0 0 38c-15,0 -28,12 -28,28 0,15 13,28 28,28z"/>
    <path class="fil10" d="M3572 6890l0 674 -591 0 -590 0 0 -674c0,-31 25,-57 56,-57l1069 0c31,0 56,26 56,57zm-56 618l0 -581 0 -38 -38 0 -37 0 -57 0 -37 0 -38 0 -37 0 -38 0 -412 0 -75 0 -75 0 -75 0 -75 0 -75 0 0 38 0 581 1069 0z"/>
    <path class="fil16" d="M2466 6833l-19 0c-31,0 -56,26 -56,57l0 674 18 0 0 -674c0,-31 26,-57 57,-57z"/>
    <path class="fil14" d="M3516 6833l-19 0c31,0 56,26 56,57l0 674 19 0 0 -674c0,-31 -25,-57 -56,-57z"/>
    <path class="fil15" d="M3107 7752l-4 -19c-80,0 -163,0 -243,0l-5 19c84,0 169,0 252,0z"/>
    <path class="fil15" d="M3088 7752l34 150 19 0 -34 -150c-6,0 -12,0 -19,0z"/>
    <path class="fil9" d="M2874 7752l-33 150 -19 0 33 -150c7,0 13,0 19,0z"/>
    <rect class="fil9" x="2447" y="6889" width="1069" height="619"/>
    <polygon class="fil0" points="2503,7077 2916,7077 3103,7077 3103,7452 2503,7452 "/>
    <rect class="fil27" x="2916" y="6968" width="131.252" height="52.6454"/>
    <rect class="fil10" x="2916" y="6968" width="131.252" height="52.6454"/>
    <path class="fil14" d="M3366 6992c-5,0 -9,-4 -9,-9 0,-5 4,-9 9,-9l0 0c5,0 10,4 10,9 0,5 -5,9 -10,9z"/>
    <path class="fil14" d="M3460 6992c-5,0 -9,-4 -9,-9 0,-5 4,-9 9,-9l0 0c5,0 9,4 9,9 0,5 -4,9 -9,9z"/>
    <path class="fil14" d="M3423 6992c-6,0 -10,-4 -10,-9 0,-5 4,-9 9,-9l1 0c5,0 9,4 9,9 0,5 -4,9 -9,9z"/>
    <path class="fil2" d="M3309 7377c11,0 19,8 19,18 0,11 -8,19 -19,19l-112 0c-10,0 -19,-8 -19,-19 0,-10 9,-18 19,-18l112 0z"/>
    <polygon class="fil14" points="3047,6968 2916,6968 2916,6987 2981,7002 3044,6987 3047,6987 "/>
    <polygon class="fil10" points="3103,6955 3044,6969 2981,6983 2859,6955 2981,6927 "/>
    <path class="fil9" d="M2606 7133c26,0 47,21 47,47 0,26 -21,47 -47,47 -26,0 -47,-21 -47,-47 0,-26 21,-47 47,-47z"/>
    <path class="fil2" d="M2850 7310c0,8 28,22 42,28 16,5 24,11 24,27 0,15 0,30 0,30l0 19 -225 0 0 -19c0,0 0,-15 0,-30 0,-16 7,-22 23,-27 14,-6 42,-20 42,-28l0 -20c14,18 33,30 47,30 14,0 33,-12 47,-30l0 20 0 0z"/>
    <path class="fil11" d="M2756 7310c0,8 -28,22 -42,28 -16,5 -23,11 -23,27 0,15 0,30 0,30l0 19 18 0c0,0 0,-15 0,-31 0,-15 8,-21 24,-27 14,-5 42,-19 42,-27l0 -17c-5,-5 -12,-13 -19,-22l0 20z"/>
    <path class="fil16" d="M2775 7309l0 3c6,6 8,7 0,-3z"/>
    <path class="fil12" d="M2850 7310c0,8 28,22 42,28 16,5 24,11 24,27 0,15 0,30 0,30l0 19 -19 0c0,0 0,-15 0,-31 0,-15 -8,-21 -23,-27 -15,-5 -43,-19 -43,-27l0 -17c5,-5 13,-13 19,-22l0 20z"/>
    <path class="fil17" d="M2831 7309l0 3c-5,6 -7,7 0,-3z"/>
    <path class="fil22" d="M2850 7290c-14,18 -33,30 -47,30 -14,0 -33,-12 -47,-30 -11,-14 -18,-32 -18,-50 0,-42 29,-70 65,-70 36,0 66,28 66,70 0,18 -8,36 -19,50z"/>
    <path class="fil9" d="M2775 7290c-11,-14 -19,-32 -19,-50 0,-38 25,-64 57,-69 -4,0 -7,-1 -10,-1 -36,0 -65,28 -65,70 0,18 7,36 18,50 14,18 33,30 47,30 3,0 6,0 10,-1 -13,-4 -27,-14 -38,-29z"/>
    <path class="fil15" d="M2831 7290c11,-14 19,-32 19,-50 0,-38 -24,-64 -56,-69 3,0 6,-1 9,-1 36,0 66,28 66,70 0,18 -8,36 -19,50 -14,18 -33,30 -47,30 -3,0 -6,0 -9,-1 12,-4 26,-14 37,-29z"/>
    <rect class="fil10" x="2503" y="7414" width="599.809" height="37.4984"/>
    <path class="fil8" d="M3572 7574l-1181 0c-5,0 -10,-5 -10,-10 0,-5 5,-9 10,-9l1181 0c5,0 9,4 9,9 0,5 -4,10 -9,10z"/>
    <path class="fil8" d="M2981 7667c-20,0 -37,-16 -37,-37 0,-21 17,-38 37,-38 21,0 38,17 38,38 0,21 -17,37 -38,37zm0 -56c-10,0 -18,9 -18,19 0,10 8,19 18,19 11,0 19,-9 19,-19 0,-10 -8,-19 -19,-19z"/>
    <path class="fil8" d="M2822 7911c-1,0 -1,0 -2,0 -5,-1 -8,-6 -7,-11l37 -169c2,-5 7,-8 12,-7 5,1 8,6 7,11l-38 169c-1,4 -5,7 -9,7z"/>
    <path class="fil8" d="M3141 7911c-5,0 -9,-3 -10,-7l-37 -169c-1,-5 2,-10 7,-11 5,-1 10,2 11,7l38 169c1,5 -2,10 -7,11 -1,0 -2,0 -2,0z"/>
    <path class="fil8" d="M3169 7911l-375 0c-5,0 -10,-4 -10,-9 0,-5 5,-10 10,-10l375 0c5,0 9,5 9,10 0,5 -4,9 -9,9z"/>
    <path class="fil8" d="M3516 7518l-1069 0c-5,0 -9,-4 -9,-10l0 -618c0,-6 4,-10 9,-10l1069 0c5,0 9,4 9,10l0 618c0,6 -4,10 -9,10zm-1060 -19l1050 0 0 -600 -1050 0 0 600z"/>
    <path class="fil8" d="M3516 7705l-1069 0c-36,0 -66,-29 -66,-65 0,0 0,-1 0,-1 0,0 0,0 0,0l0 -749c0,-37 30,-66 66,-66l1069 0c36,0 65,29 65,66l0 750c0,36 -29,65 -65,65zm-1116 -66c0,0 0,1 0,1 0,25 21,46 47,46l1069 0c26,0 47,-21 47,-46l0 -750c0,-26 -21,-47 -47,-47l-1069 0c-26,0 -47,21 -47,47l0 749c0,0 0,0 0,0z"/>
    <path class="fil8" d="M3516 7742l-1069 0c-37,0 -66,-28 -66,-65l0 -37c0,-6 5,-10 10,-10 5,0 9,4 9,9l0 38c0,26 20,47 47,47l1069 0c26,0 47,-21 47,-47l0 -37c0,-6 4,-10 9,-10 5,0 9,4 9,10l0 37c0,37 -28,65 -65,65z"/>
    <path class="fil8" d="M2916 7030c-5,0 -10,-4 -10,-10l0 -37c0,-5 5,-9 10,-9 5,0 9,4 9,9l0 37c0,6 -4,10 -9,10z"/>
    <path class="fil8" d="M3047 7030l-131 0c-5,0 -10,-4 -10,-10 0,-5 5,-9 10,-9l131 0c5,0 9,4 9,9 0,6 -4,10 -9,10z"/>
    <path class="fil8" d="M3047 7030c-5,0 -9,-4 -9,-10l0 -37c0,-5 4,-9 9,-9 5,0 9,4 9,9l0 37c0,6 -4,10 -9,10z"/>
    <path class="fil8" d="M2981 6992c0,0 -1,0 -2,0l-122 -28c-4,-1 -7,-5 -7,-9 0,-5 3,-8 7,-9l122 -28c2,-1 3,-1 4,0l122 28c5,1 8,4 8,9 0,4 -3,8 -8,9l-122 28c0,0 -1,0 -2,0zm-80 -37l80 18 80 -18 -80 -19 -80 19z"/>
    <path class="fil8" d="M2559 6992l-56 0c-5,0 -9,-4 -9,-9 0,-5 4,-9 9,-9l56 0c6,0 10,4 10,9 0,5 -4,9 -10,9z"/>
    <path class="fil8" d="M3328 6992l-150 0c-5,0 -9,-4 -9,-9 0,-5 4,-9 9,-9l150 0c5,0 10,4 10,9 0,5 -5,9 -10,9z"/>
    <path class="fil8" d="M2672 6992l-56 0c-5,0 -10,-4 -10,-9 0,-5 5,-9 10,-9l56 0c5,0 9,4 9,9 0,5 -4,9 -9,9z"/>
    <path class="fil8" d="M2784 6992l-56 0c-5,0 -9,-4 -9,-9 0,-5 4,-9 9,-9l56 0c6,0 10,4 10,9 0,5 -4,9 -10,9z"/>
    <path class="fil8" d="M2503 7461c-5,0 -9,-4 -9,-9l0 -375c0,-5 4,-10 9,-10 5,0 10,5 10,10l0 375c0,5 -5,9 -10,9z"/>
    <path class="fil8" d="M3103 7461c-5,0 -9,-4 -9,-9l0 -375c0,-5 4,-10 9,-10 5,0 10,5 10,10l0 375c0,5 -5,9 -10,9z"/>
    <path class="fil8" d="M3103 7086l-600 0c-5,0 -9,-4 -9,-9 0,-5 4,-10 9,-10l600 0c5,0 10,5 10,10 0,5 -5,9 -10,9z"/>
    <path class="fil8" d="M3103 7461l-600 0c-5,0 -9,-4 -9,-9 0,-5 4,-10 9,-10l600 0c5,0 10,5 10,10 0,5 -5,9 -10,9z"/>
    <path class="fil8" d="M3084 7424l-562 0c-5,0 -9,-5 -9,-10 0,-5 4,-9 9,-9l562 0c6,0 10,4 10,9 0,5 -4,10 -10,10z"/>
    <path class="fil8" d="M2691 7405c-5,0 -10,-4 -10,-10l0 -30c0,-23 15,-31 30,-36 16,-6 33,-16 36,-20 1,-5 5,-8 9,-8 6,0 10,4 10,9 0,17 -37,32 -49,36 -15,6 -17,10 -17,19l0 30c0,6 -4,10 -9,10z"/>
    <path class="fil8" d="M2916 7405c-5,0 -10,-4 -10,-10l0 -30c0,-9 -2,-13 -17,-19 -11,-4 -48,-19 -48,-36 0,-5 4,-9 9,-9 5,0 8,3 9,8 4,4 20,14 37,20 14,5 29,13 29,36l0 30c0,6 -4,10 -9,10z"/>
    <path class="fil8" d="M2803 7330c-17,0 -38,-13 -54,-34 -13,-17 -21,-37 -21,-56 0,-45 32,-79 75,-79 43,0 75,34 75,79 0,19 -7,39 -20,56 -16,21 -38,34 -55,34zm0 -150c-32,0 -56,25 -56,60 0,15 6,31 17,45 14,18 30,26 39,26 9,0 26,-8 40,-26 10,-14 16,-30 16,-45 0,-35 -23,-60 -56,-60z"/>
    <path class="fil8" d="M2850 7320c-5,0 -9,-4 -9,-10l0 -20c0,-5 4,-9 9,-9 5,0 9,4 9,9l0 20c0,6 -4,10 -9,10z"/>
    <path class="fil8" d="M2756 7320c-5,0 -9,-4 -9,-10l0 -20c0,-5 4,-9 9,-9 6,0 10,4 10,9l0 20c0,6 -4,10 -10,10z"/>
    <path class="fil8" d="M2606 7236c-31,0 -56,-25 -56,-56 0,-31 25,-56 56,-56 31,0 57,25 57,56 0,31 -26,56 -57,56zm0 -94c-20,0 -37,17 -37,38 0,21 17,37 37,37 21,0 38,-16 38,-37 0,-21 -17,-38 -38,-38z"/>
    <path class="fil8" d="M2606 7189c-5,0 -9,-4 -9,-9l0 -28c0,-5 4,-10 9,-10 6,0 10,5 10,10l0 28c0,5 -4,9 -10,9z"/>
    <path class="fil8" d="M2621 7204c-3,0 -5,-1 -7,-3l-14 -15c-4,-3 -4,-9 0,-13 3,-3 9,-3 13,0l14 15c4,3 4,9 0,13 -1,2 -4,3 -6,3z"/>
    <path class="fil8" d="M3103 7369c-4,0 -7,-3 -8,-6l-129 -282c-2,-5 0,-11 4,-13 5,-2 11,0 13,5l129 282c2,5 0,11 -5,13 -1,0 -3,1 -4,1z"/>
    <path class="fil8" d="M3066 7205c-4,0 -7,-2 -9,-6l-37 -81c-2,-5 0,-10 4,-12 5,-2 11,0 13,4l37 81c2,5 0,11 -4,13 -2,0 -3,1 -4,1z"/>
    <path class="fil8" d="M3459 7124l-281 0c-5,0 -9,-5 -9,-10 0,-5 4,-9 9,-9l281 0c6,0 10,4 10,9 0,5 -4,10 -10,10z"/>
    <path class="fil8" d="M3459 7180l-281 0c-5,0 -9,-4 -9,-10 0,-5 4,-9 9,-9l281 0c6,0 10,4 10,9 0,6 -4,10 -10,10z"/>
    <path class="fil8" d="M3459 7236l-281 0c-5,0 -9,-4 -9,-9 0,-5 4,-10 9,-10l281 0c6,0 10,5 10,10 0,5 -4,9 -10,9z"/>
    <path class="fil8" d="M3328 7292l-150 0c-5,0 -9,-4 -9,-9 0,-5 4,-9 9,-9l150 0c5,0 10,4 10,9 0,5 -5,9 -10,9z"/>
    <path class="fil8" d="M3197 7424c-16,0 -28,-13 -28,-29 0,-15 12,-28 28,-28 5,0 9,5 9,10 0,5 -4,9 -9,9 -5,0 -9,4 -9,9 0,6 4,10 9,10 5,0 9,4 9,9 0,5 -4,10 -9,10z"/>
    <path class="fil8" d="M3309 7424c-5,0 -9,-5 -9,-10 0,-5 4,-9 9,-9 6,0 10,-4 10,-10 0,-5 -4,-9 -10,-9 -5,0 -9,-4 -9,-9 0,-5 4,-10 9,-10 16,0 29,13 29,28 0,16 -13,29 -29,29z"/>
    <path class="fil8" d="M3309 7386l-112 0c-5,0 -9,-4 -9,-9 0,-5 4,-10 9,-10l112 0c6,0 10,5 10,10 0,5 -4,9 -10,9z"/>
    <path class="fil8" d="M3309 7424l-112 0c-5,0 -9,-5 -9,-10 0,-5 4,-9 9,-9l112 0c6,0 10,4 10,9 0,5 -4,10 -10,10z"/>
    <path class="fil8" d="M2803 7461c-5,0 -9,-4 -9,-9l0 -38c0,-5 4,-9 9,-9 5,0 10,4 10,9l0 38c0,5 -5,9 -10,9z"/>
    <path class="fil29" d="M2944 7630c0,-21 17,-38 37,-38l0 -18 -581 0 0 65 0 0c0,27 21,47 47,47l534 0 0 -19c-20,0 -37,-16 -37,-37z"/>
   </g>
   <g>
    <polygon class="fil14" points="5041,7851 4931,7871 4819,7624 4931,7605 "/>
    <polygon class="fil15" points="4931,7605 4913,7608 5023,7851 4929,7868 4931,7871 5041,7851 "/>
    <polygon class="fil30" points="4838,7624 4932,7608 4931,7605 4819,7624 4931,7871 4948,7868 "/>
    <path class="fil2" d="M5468 7086c-47,0 -85,-37 -85,-84 0,-47 38,-84 85,-84 46,0 84,37 84,84 0,47 -38,84 -84,84z"/>
    <path class="fil31" d="M5402 7002c0,-43 33,-79 75,-83 -3,-1 -6,-1 -9,-1 -47,0 -85,37 -85,84 0,47 38,84 85,84 3,0 6,0 9,0 -42,-5 -75,-41 -75,-84z"/>
    <polygon class="fil10" points="4968,7540 4782,7573 4793,7629 4978,7596 "/>
    <polygon class="fil32" points="4968,7540 4949,7544 4959,7596 4792,7625 4793,7629 4978,7596 "/>
    <polygon class="fil15" points="4801,7573 4968,7544 4968,7540 4782,7573 4793,7629 4811,7625 "/>
    <path class="fil3" d="M5614 7608c18,0 32,14 32,32 0,43 -57,68 -57,68 0,0 -56,-25 -56,-68 0,-18 14,-32 31,-32 11,0 20,5 25,13 6,-8 15,-13 25,-13z"/>
    <path class="fil3" d="M5646 6927c0,36 30,65 66,65 36,0 65,-29 65,-65l0 37c0,36 -29,66 -65,66 -36,0 -66,-30 -66,-66l0 -37z"/>
    <path class="fil0" d="M5712 6992c-36,0 -66,-29 -66,-65 0,-36 30,-66 66,-66 36,0 65,30 65,66 0,36 -29,65 -65,65z"/>
    <polygon class="fil10" points="5571,7349 5571,7368 5515,7368 5515,7274 5571,7274 5571,7293 "/>
    <path class="fil9" d="M5665 7274l19 0c18,19 18,75 0,94l-75 0 -19 -19 -19 0 0 -56c0,0 15,0 38,-19 22,-19 37,-56 37,-56l19 0 0 56 0 0z"/>
    <path class="fil15" d="M5477 7302c0,-85 67,-154 150,-159 -3,0 -6,0 -9,0 -88,0 -159,71 -159,159 0,88 71,159 159,159 3,0 6,0 9,0 -83,-5 -150,-74 -150,-159z"/>
    <polygon class="fil0" points="4719,7318 4765,7576 4629,7562 4596,7377 "/>
    <polygon class="fil22" points="4648,7562 4615,7377 4720,7326 4719,7318 4596,7377 4629,7562 4765,7576 4764,7574 "/>
    <path class="fil10" d="M5302 7063l-37 6c20,111 -343,213 -343,213l-203 36 46 258 203 -36c0,0 382,9 395,83l37 -6 -98 -554z"/>
    <path class="fil32" d="M5302 7063l-18 3 97 551 -19 3c0,1 1,2 1,3l37 -6 -98 -554z"/>
    <rect class="fil10" x="5515" y="7274" width="18.2026" height="93.7494"/>
    <rect class="fil17" x="5553" y="7274" width="18.1997" height="93.7494"/>
    <path class="fil8" d="M5440 6983c-5,0 -10,-4 -10,-9 0,-5 5,-9 10,-9l0 0c5,0 9,4 9,9 0,5 -4,9 -9,9z"/>
    <path class="fil8" d="M5496 6983c-5,0 -9,-4 -9,-9 0,-5 4,-9 9,-9l0 0c5,0 10,4 10,9 0,5 -5,9 -10,9z"/>
    <path class="fil8" d="M5353 7577c-4,0 -8,-3 -9,-8l-78 -443c-1,-5 2,-10 7,-11 6,-1 10,3 11,8l78 443c1,5 -2,10 -7,11 -1,0 -1,0 -2,0z"/>
    <path class="fil8" d="M5363 7632c-4,0 -8,-3 -9,-7 -9,-49 -242,-72 -387,-75 -5,0 -9,-5 -9,-10 0,-5 5,-9 10,-9 65,2 391,13 404,90 1,6 -2,10 -7,11 -1,0 -1,0 -2,0z"/>
    <path class="fil8" d="M4922 7291c-4,0 -8,-2 -9,-6 -1,-5 2,-11 7,-12 98,-28 351,-118 336,-202 -1,-5 3,-10 8,-11 5,-1 10,3 11,8 9,50 -49,103 -170,158 -88,39 -179,65 -180,65 -1,0 -2,0 -3,0z"/>
    <path class="fil8" d="M5265 7079c-4,0 -8,-4 -9,-8 -1,-5 3,-10 8,-11l37 -7c5,0 10,3 11,8 0,5 -3,10 -8,11l-37 6c-1,1 -1,1 -2,1z"/>
    <path class="fil8" d="M5400 7626c-5,0 -9,-3 -9,-8l-98 -554c-1,-5 3,-10 8,-11 5,-1 10,3 11,8l97 554c1,5 -2,10 -8,11 0,0 -1,0 -1,0z"/>
    <path class="fil8" d="M5363 7632c-4,0 -8,-3 -9,-7 -1,-5 2,-10 7,-11l37 -7c5,-1 10,3 11,8 1,5 -2,10 -8,11l-36 6c-1,0 -1,0 -2,0z"/>
    <path class="fil8" d="M4765 7586c-5,0 -9,-4 -10,-8 -1,-5 3,-10 8,-11l203 -36c5,-1 10,3 11,8 1,5 -3,10 -8,11l-203 35c0,1 -1,1 -1,1z"/>
    <path class="fil8" d="M4719 7327c-4,0 -8,-3 -9,-8 -1,-5 2,-9 7,-10l203 -36c6,-1 10,2 11,7 1,6 -2,10 -7,11l-203 36c-1,0 -1,0 -2,0z"/>
    <path class="fil8" d="M4765 7586c-1,0 -1,0 -1,0l-136 -15c-4,0 -8,-3 -8,-7l-33 -185c-1,-4 1,-8 5,-10l123 -60c3,-1 6,-1 8,0 3,2 5,4 5,7l46 259c0,2 -1,5 -3,8 -1,2 -4,3 -6,3zm-128 -32l116 12 -41 -234 -105 51 30 171z"/>
    <path class="fil8" d="M4961 7513c-4,0 -8,-3 -9,-8l-33 -184c0,-6 3,-10 8,-11 5,-1 10,2 11,7l32 185c1,5 -2,10 -7,11 -1,0 -1,0 -2,0z"/>
    <path class="fil8" d="M4640 7417c-4,0 -7,-1 -9,-5 -2,-4 0,-10 4,-12l52 -29c5,-2 11,0 13,4 3,5 1,10 -4,13l-52 28c-1,1 -3,1 -4,1z"/>
    <path class="fil8" d="M4718 7537c-1,0 -1,0 -2,0l-58 -9c-5,-1 -9,-6 -8,-11 1,-5 6,-8 11,-8l58 9c5,1 9,6 8,11 -1,5 -5,8 -9,8z"/>
    <path class="fil8" d="M4649 7473c-4,0 -8,-3 -9,-8 -1,-5 3,-10 8,-11l55 -10c5,-1 10,3 11,8 1,5 -3,10 -8,11l-55 10c0,0 -1,0 -2,0z"/>
    <path class="fil8" d="M4736 7315c-5,0 -9,-4 -10,-8 0,-5 3,-10 8,-11l37 -7c5,0 10,3 11,8 1,5 -3,10 -8,11l-37 7c0,0 -1,0 -1,0z"/>
    <path class="fil8" d="M5042 7860c-4,0 -8,-2 -9,-5l-95 -212c-2,-5 0,-10 5,-12 5,-2 10,0 13,5l94 211c2,5 0,11 -5,13 -1,0 -2,0 -3,0z"/>
    <path class="fil8" d="M4931 7880c-4,0 -7,-2 -9,-6l-94 -211c-2,-5 0,-11 4,-13 5,-2 11,0 13,5l94 212c2,4 0,10 -4,12 -2,1 -3,1 -4,1z"/>
    <path class="fil8" d="M4912 7883c-4,0 -8,-3 -9,-7 -1,-5 2,-10 7,-11l148 -26c5,-1 10,2 11,7 1,5 -2,10 -8,11l-147 26c-1,0 -1,0 -2,0z"/>
    <path class="fil8" d="M4793 7638c-5,0 -9,-3 -10,-8l-3 -21c-1,-5 2,-10 8,-11 5,0 9,3 10,8l4 21c1,5 -3,10 -8,11 0,0 -1,0 -1,0z"/>
    <path class="fil8" d="M4793 7638c-5,0 -9,-3 -10,-8 0,-5 3,-10 8,-11l185 -32c5,-1 10,3 11,8 1,5 -3,10 -8,11l-185 32c0,0 -1,0 -1,0z"/>
    <path class="fil8" d="M4978 7606c-5,0 -9,-3 -10,-8l-3 -18c-1,-5 2,-10 7,-11 6,-1 10,2 11,7l4 19c1,5 -3,10 -8,11 0,0 -1,0 -1,0z"/>
    <path class="fil8" d="M5468 7096c-52,0 -94,-42 -94,-94 0,-52 42,-94 94,-94 51,0 93,42 93,94 0,52 -42,94 -93,94zm0 -169c-42,0 -75,34 -75,75 0,41 33,75 75,75 41,0 75,-34 75,-75 0,-41 -34,-75 -75,-75z"/>
    <path class="fil8" d="M5618 7471c-93,0 -169,-76 -169,-169 0,-93 76,-169 169,-169 93,0 169,76 169,169 0,93 -76,169 -169,169zm0 -319c-83,0 -150,67 -150,150 0,83 67,150 150,150 83,0 150,-67 150,-150 0,-83 -67,-150 -150,-150z"/>
    <path class="fil8" d="M5684 7377l-75 0c-3,0 -5,-1 -7,-3l-16 -16 -15 0c-5,0 -9,-4 -9,-9 0,-5 4,-9 9,-9l19 0c2,0 5,1 7,2l16 16 66 0c12,-16 12,-58 0,-75l-14 0c-5,0 -9,-4 -9,-9l0 -47 -4 0c-5,12 -19,39 -37,54 -25,21 -42,21 -44,21 -5,0 -9,-4 -9,-9 0,-5 4,-10 9,-10 0,0 13,0 32,-16 20,-17 34,-52 35,-53 1,-3 4,-6 8,-6l19 0c5,0 9,5 9,10l0 47 10 0c2,0 5,1 6,2 23,23 23,85 0,107 -1,2 -4,3 -6,3z"/>
    <path class="fil8" d="M5571 7377l-56 0c-5,0 -9,-4 -9,-9l0 -94c0,-5 4,-9 9,-9l56 0c5,0 10,4 10,9l0 94c0,5 -5,9 -10,9zm-47 -19l38 0 0 -75 -38 0 0 75z"/>
    <path class="fil8" d="M5468 7058c-30,0 -38,-18 -38,-28 0,-5 4,-9 9,-9 5,0 10,4 10,9 0,2 1,10 19,10 17,0 18,-8 18,-10 1,-5 6,-9 10,-9 5,0 9,4 9,9 0,10 -8,28 -37,28z"/>
    <path class="fil8" d="M5712 7002c-42,0 -75,-34 -75,-75 0,-42 33,-75 75,-75 41,0 75,33 75,75 0,41 -34,75 -75,75zm0 -132c-31,0 -56,26 -56,57 0,31 25,56 56,56 31,0 56,-25 56,-56 0,-31 -25,-57 -56,-57z"/>
    <path class="fil8" d="M5712 7039c-42,0 -75,-33 -75,-75 0,-5 4,-9 9,-9 5,0 10,4 10,9 0,31 25,56 56,56 31,0 56,-25 56,-56 0,-5 4,-9 9,-9 6,0 10,4 10,9 0,42 -34,75 -75,75z"/>
    <path class="fil8" d="M5712 6964c-5,0 -10,-4 -10,-9l0 -56c0,-6 5,-10 10,-10 5,0 9,4 9,10l0 56c0,5 -4,9 -9,9z"/>
    <path class="fil8" d="M5740 6936l-56 0c-6,0 -10,-4 -10,-9 0,-5 4,-10 10,-10l56 0c5,0 9,5 9,10 0,5 -4,9 -9,9z"/>
    <path class="fil8" d="M5646 6974c-5,0 -9,-5 -9,-10l0 -37c0,-5 4,-10 9,-10 5,0 10,5 10,10l0 37c0,5 -5,10 -10,10z"/>
    <path class="fil8" d="M5777 6974c-5,0 -9,-5 -9,-10l0 -37c0,-5 4,-10 9,-10 6,0 10,5 10,10l0 37c0,5 -4,10 -10,10z"/>
    <path class="fil0" d="M5586 7717c-3,-1 -62,-28 -62,-77 0,-23 18,-41 40,-41 9,0 18,3 25,9 7,-6 16,-9 25,-9 23,0 41,18 41,41 0,49 -59,76 -62,77l-4 1 -3 -1zm3 35c57,0 104,-46 104,-103 0,-57 -47,-103 -104,-103 -56,0 -103,46 -103,103 0,57 47,103 103,103z"/>
    <path class="fil8" d="M5589 7771c-67,0 -121,-55 -121,-122 0,-67 54,-122 121,-122 68,0 122,55 122,122 0,67 -54,122 -122,122zm0 -225c-56,0 -103,46 -103,103 0,57 47,103 103,103 57,0 104,-46 104,-103 0,-57 -47,-103 -104,-103z"/>
    <path class="fil8" d="M5589 7718c-1,0 -2,-1 -3,-1 -3,-1 -62,-28 -62,-77 0,-23 18,-41 40,-41 9,0 18,3 25,9 7,-6 16,-9 25,-9 23,0 41,18 41,41 0,49 -59,76 -62,77 -1,0 -2,1 -4,1zm-25 -100c-12,0 -21,10 -21,22 0,31 35,52 46,58 12,-6 47,-27 47,-58 0,-12 -10,-22 -22,-22 -7,0 -13,3 -17,9 -2,2 -5,3 -8,3 -2,0 -5,-1 -7,-3 -4,-6 -11,-9 -18,-9z"/>
   </g>
   <g>
    <path class="fil8" d="M3189 2789c-63,0 -115,51 -115,115 0,22 6,43 17,60l-98 98c-11,10 -11,28 0,39 5,5 12,8 20,8 7,0 14,-3 19,-8l98 -98c17,11 38,17 59,17 64,0 116,-52 116,-116 0,-64 -52,-115 -116,-115zm-170 298c-4,4 -9,4 -13,0 -3,-3 -3,-9 0,-12l96 -96c4,5 8,9 12,13l-95 95zm170 -86c-53,0 -96,-43 -96,-97 0,-53 43,-97 96,-97 54,0 97,44 97,97 0,54 -43,97 -97,97z"/>
    <path class="fil8" d="M3111 2904l19 0c0,-33 27,-59 59,-59l0 -19c-43,0 -78,35 -78,78z"/>
   </g>
  </g>
 </g>
</svg>
